<?xml version="1.0" encoding="UTF-8"?>
<svg xmlns="http://www.w3.org/2000/svg" viewBox="0 0 1190.55 841.89">
  <defs>
    <style>
      .cls-1 {
        font-family: IBMPlexSans-ThinItalic, 'IBM Plex Sans';
        font-size: 22px;
        font-style: italic;
        font-weight: 200;
      }

      .cls-1, .cls-2, .cls-3, .cls-4 {
        fill: #fff;
      }

      .cls-5 {
        letter-spacing: 0em;
      }

      .cls-6 {
        letter-spacing: 0em;
      }

      .cls-7 {
        letter-spacing: 0em;
      }

      .cls-2 {
        font-family: Poppins-Regular, Poppins;
        font-size: 12.66px;
      }

      .cls-8 {
        letter-spacing: 0em;
      }

      .cls-9 {
        letter-spacing: 0em;
      }

      .cls-10 {
        stroke-width: 4px;
      }

      .cls-10, .cls-11 {
        fill: none;
        stroke: #1887a5;
      }

      .cls-10, .cls-11, .cls-12 {
        stroke-miterlimit: 10;
      }

      .cls-13, .cls-14 {
        fill: #1887a5;
      }

      .cls-15 {
        letter-spacing: -.05em;
      }

      .cls-16 {
        letter-spacing: 0em;
      }

      .cls-17 {
        letter-spacing: -.05em;
      }

      .cls-18 {
        letter-spacing: 0em;
      }

      .cls-19 {
        letter-spacing: 0em;
      }

      .cls-20 {
        letter-spacing: 0em;
      }

      .cls-21 {
        letter-spacing: 0em;
      }

      .cls-11 {
        stroke-width: 2px;
      }

      .cls-22 {
        letter-spacing: -.05em;
      }

      .cls-23 {
        letter-spacing: 0em;
      }

      .cls-24 {
        letter-spacing: 0em;
      }

      .cls-25 {
        letter-spacing: -.01em;
      }

      .cls-26 {
        letter-spacing: 0em;
      }

      .cls-27 {
        letter-spacing: 0em;
      }

      .cls-28 {
        letter-spacing: 0em;
      }

      .cls-29 {
        letter-spacing: 0em;
      }

      .cls-30 {
        letter-spacing: 0em;
      }

      .cls-31 {
        letter-spacing: 0em;
      }

      .cls-12 {
        fill: #221f1f;
        stroke: #221f1f;
      }

      .cls-32 {
        letter-spacing: -.08em;
      }

      .cls-33 {
        letter-spacing: 0em;
      }

      .cls-14 {
        font-family: BebasNeuePro-Middle, 'Bebas Neue Pro';
        font-size: 12px;
      }

      .cls-34 {
        fill: #5eba4b;
      }

      .cls-35 {
        letter-spacing: -.05em;
      }

      .cls-4 {
        font-family: BebasNeue-Regular, 'Bebas Neue';
        font-size: 18px;
      }

      .cls-36 {
        letter-spacing: 0em;
      }

      .cls-37 {
        letter-spacing: 0em;
      }

      .cls-38 {
        letter-spacing: 0em;
      }
    </style>
  </defs>
  <g id="EXTERIOR">
    <g id="BG">
      <rect class="cls-12" width="396.85" height="841.89"/>
      <rect class="cls-12" x="396.85" width="396.85" height="841.89"/>
      <rect class="cls-12" x="793.7" width="396.85" height="841.89"/>
    </g>
    <g id="TEXT">
      <g id="Social">
        <g>
          <path class="cls-3" d="M977.87,721.72c-1.07,0-1.87.8-1.87,1.87s.8,1.87,1.87,1.87,1.87-.8,1.87-1.87c0-1.07-.8-1.87-1.87-1.87Z"/>
          <path class="cls-3" d="M969.46,724.12c-4.4,0-7.88,3.6-7.88,7.88s3.6,7.88,7.88,7.88,7.88-3.6,7.88-7.88-3.47-7.88-7.88-7.88ZM969.46,737.07c-2.8,0-5.07-2.27-5.07-5.07s2.27-5.07,5.07-5.07,5.07,2.27,5.07,5.07-2.27,5.07-5.07,5.07Z"/>
          <path class="cls-3" d="M975.87,715.85h-12.68c-5.47,0-9.74,4.27-9.74,9.61v12.68c0,5.34,4.27,9.61,9.61,9.61h12.68c5.34,0,9.61-4.27,9.61-9.61v-12.68c.13-5.34-4.14-9.61-9.48-9.61ZM982.41,738.27c0,3.6-2.94,6.67-6.67,6.67h-12.68c-3.6,0-6.67-2.94-6.67-6.67v-12.68c0-3.6,2.94-6.67,6.67-6.67h12.68c3.6,0,6.67,2.94,6.67,6.67v12.68Z"/>
        </g>
        <path class="cls-3" d="M1013.29,715.85c-8.81,0-16.01,7.19-16.01,16.05,0,8.01,5.86,14.65,13.52,15.85v-11.21h-4.07v-4.64h4.07v-3.54c0-4.02,2.39-6.23,6.05-6.23,1.75,0,3.57.3,3.57.3v3.96h-2.02c-1.99,0-2.61,1.23-2.61,2.5v3.01h4.45l-.72,4.64h-3.73v11.21c3.77-.6,7.21-2.52,9.69-5.43,2.48-2.91,3.84-6.61,3.83-10.43,0-8.86-7.21-16.05-16.01-16.05Z"/>
      </g>
      <text class="cls-2" transform="translate(869.35 770.8)"><tspan x="0" y="0">345 236 8195 - certobistro@gmail.com</tspan></text>
      <text class="cls-2" transform="translate(810.71 794.62)"><tspan x="0" y="0">Via Frigintini Gianforma Ponte Margione, 97015 Modica RG</tspan></text>
      <g>
        <path class="cls-3" d="M960.06,63.06c.48,0,.84.42.84.9v39.66c0,.42-.36.84-.84.84h-11.1c-.48,0-.9-.42-.9-.84v-17.64l-6.06,17.58c-.18.48-.96.9-1.5.9h-6.6c-.54,0-1.32-.42-1.5-.9l-6.06-17.58v17.64c0,.42-.42.84-.9.84h-11.1c-.48,0-.84-.42-.84-.84v-39.66c0-.48.36-.9.84-.9h12.54c.78,0,1.68.54,2.04,1.2l8.28,22.92,8.28-22.92c.36-.66,1.26-1.2,2.04-1.2h12.54Z"/>
        <path class="cls-3" d="M993.96,93.66c.48,0,.9.36.9.78v9.18c0,.42-.42.84-.9.84h-27.9c-.42,0-.84-.48-.96-.9v-39.66c0-.54.3-.84.84-.84h27.3c.54,0,.96.42.96.84v9.06c0,.54-.42.9-.96.9h-15.66v4.74h12.72c.54,0,.84.42.78.78l-.84,8.4c-.06.36-.48.78-1.02.78h-11.64v5.1h16.38Z"/>
        <path class="cls-3" d="M1032.66,63.06c.54,0,.9.42.9.9v39.66c0,.42-.36.84-.9.84h-10.38c-.42,0-.96-.3-1.26-.78l-10.44-18.66v18.6c0,.42-.36.84-.9.84h-10.62c-.48,0-.84-.42-.84-.84v-39.66c0-.48.36-.9.84-.9h10.38c.54,0,1.14.3,1.38.78l10.38,18.66v-18.54c0-.48.42-.9.84-.9h10.62Z"/>
        <path class="cls-3" d="M1069.62,63.06c.6,0,1.02.48,1.02,1.02v25.02c0,10.62-5.7,16.2-16.56,16.2s-16.44-5.58-16.56-16.2v-25.02c0-.54.48-1.02,1.02-1.02h10.32c.6,0,1.02.48,1.02,1.02v26.1c0,2.76,1.56,4.38,4.2,4.38s4.2-1.62,4.2-4.32v-26.16c0-.54.48-1.02,1.02-1.02h10.32Z"/>
      </g>
      <line class="cls-10" x1="913.5" y1="112.51" x2="960.9" y2="112.51"/>
    </g>
    <g id="LOGO">
      <g>
        <g>
          <path class="cls-3" d="M897.31,487.23c-8.13,0-14.84-2.68-20.13-8.05-5.29-5.37-7.94-11.96-7.94-19.79s2.65-14.42,7.94-19.79c5.29-5.37,12-8.05,20.13-8.05,4.91,0,9.42,1.18,13.54,3.53,4.11,2.35,7.32,5.52,9.62,9.51l-6.21,3.6c-1.53-2.96-3.82-5.33-6.86-7.09-3.04-1.76-6.4-2.65-10.08-2.65-6.19,0-11.23,1.99-15.15,5.98-3.91,3.99-5.87,8.97-5.87,14.95s1.96,10.89,5.87,14.88c3.91,3.99,8.96,5.98,15.15,5.98,3.68,0,7.04-.88,10.08-2.65,3.04-1.76,5.33-4.1,6.86-7.02l6.21,3.53c-2.25,3.99-5.44,7.17-9.59,9.55-4.14,2.38-8.66,3.57-13.57,3.57Z"/>
          <path class="cls-3" d="M937.96,479.48h24.92v6.75h-32.05v-53.68h31.67v6.75h-24.54v16.49h22.62v6.67h-22.62v17.02Z"/>
          <path class="cls-3" d="M1005.6,486.23l-12.02-20.55h-12.67v20.55h-7.13v-53.68h21.47c4.6,0,8.54,1.62,11.81,4.87,3.27,3.25,4.91,7.17,4.91,11.77,0,3.48-1.04,6.65-3.11,9.51-2.07,2.86-4.74,4.88-8.01,6.06l12.65,21.47h-7.9ZM980.9,439.22v20.02h14.34c2.66,0,4.92-.98,6.79-2.95,1.86-1.97,2.8-4.33,2.8-7.09s-.93-5.11-2.8-7.06c-1.87-1.94-4.13-2.91-6.79-2.91h-14.34Z"/>
          <path class="cls-3" d="M1056.13,432.55v6.75h-15.87v46.93h-7.06v-46.93h-15.8v-6.75h38.73Z"/>
          <path class="cls-3" d="M1107.09,479.1c-5.39,5.42-11.98,8.13-19.75,8.13s-14.34-2.71-19.71-8.13c-5.37-5.42-8.05-11.99-8.05-19.71s2.68-14.35,8.05-19.75c5.37-5.39,11.94-8.09,19.71-8.09s14.35,2.7,19.75,8.09c5.39,5.4,8.09,11.98,8.09,19.75s-2.7,14.29-8.09,19.71ZM1072.58,474.23c3.96,4.01,8.88,6.02,14.76,6.02s10.8-2.01,14.76-6.02c3.96-4.01,5.94-8.96,5.94-14.84s-1.98-10.9-5.94-14.92c-3.96-4.01-8.88-6.02-14.76-6.02s-10.8,2.01-14.76,6.02c-3.96,4.01-5.94,8.99-5.94,14.92s1.98,10.83,5.94,14.84Z"/>
        </g>
        <g>
          <path class="cls-3" d="M890.1,514.77h-.75c-.09,0-.16-.02-.22-.07-.06-.05-.1-.11-.13-.18l-1.57-3.9h-6.59l-1.57,3.9c-.03.07-.07.13-.13.18s-.14.08-.23.08h-.74l5.49-13.41h.96l5.49,13.41ZM887.14,509.9l-2.73-6.78c-.09-.22-.19-.49-.27-.8-.04.15-.08.3-.12.43s-.09.26-.14.37l-2.73,6.77h6Z"/>
          <path class="cls-3" d="M903.82,501.36v13.41h-.45c-.08,0-.15-.01-.2-.04-.05-.03-.11-.08-.16-.15l-8.71-11.64c.02.19.03.37.03.54v11.29h-.85v-13.41h.48c.09,0,.16.01.2.03.05.02.1.07.16.15l8.69,11.61c-.02-.19-.03-.37-.03-.54v-11.25h.84Z"/>
          <path class="cls-3" d="M920.22,508.06c0,1.04-.15,1.97-.46,2.8-.31.83-.75,1.53-1.31,2.11s-1.24,1.03-2.02,1.34c-.79.31-1.65.46-2.6.46h-4.9v-13.41h4.9c.95,0,1.82.15,2.6.46.79.31,1.46.75,2.02,1.34s1,1.29,1.31,2.11c.31.83.46,1.76.46,2.79ZM919.21,508.06c0-.94-.13-1.77-.39-2.5-.26-.73-.63-1.35-1.1-1.86s-1.04-.89-1.71-1.16c-.66-.27-1.4-.4-2.2-.4h-3.92v11.84h3.92c.8,0,1.54-.13,2.2-.4.66-.26,1.23-.65,1.71-1.16.47-.51.84-1.12,1.1-1.86.26-.73.39-1.57.39-2.51Z"/>
          <path class="cls-3" d="M925.44,514.77h-.98v-13.41h.98v13.41Z"/>
          <path class="cls-3" d="M940.74,514.77h-.75c-.09,0-.16-.02-.22-.07-.06-.05-.1-.11-.13-.18l-1.57-3.9h-6.59l-1.57,3.9c-.03.07-.07.13-.13.18s-.14.08-.23.08h-.74l5.49-13.41h.96l5.49,13.41ZM937.77,509.9l-2.73-6.78c-.09-.22-.19-.49-.27-.8-.04.15-.08.3-.12.43-.04.14-.09.26-.14.37l-2.73,6.77h6Z"/>
          <path class="cls-3" d="M957.36,501.36v13.41h-.84v-11.43c0-.16,0-.34.03-.52l-5.28,9.37c-.09.16-.22.25-.38.25h-.15c-.16,0-.29-.08-.38-.25l-5.42-9.39c.02.19.03.37.03.54v11.43h-.85v-13.41h.67c.09,0,.16,0,.21.03s.1.07.15.15l5.41,9.33c.09.18.18.37.25.57.04-.1.08-.2.12-.3.04-.1.09-.19.14-.28l5.26-9.32c.05-.08.1-.13.16-.15.05-.02.12-.03.21-.03h.66Z"/>
          <path class="cls-3" d="M974.37,508.06c0,1.04-.15,1.98-.46,2.82-.31.84-.75,1.56-1.31,2.16s-1.24,1.06-2.02,1.38c-.79.33-1.65.49-2.6.49s-1.81-.16-2.6-.49-1.46-.79-2.02-1.38c-.56-.6-1-1.32-1.31-2.16-.31-.84-.46-1.78-.46-2.82s.15-1.97.46-2.81c.31-.84.74-1.56,1.31-2.16.56-.6,1.23-1.06,2.02-1.39.78-.33,1.65-.49,2.6-.49s1.81.16,2.6.49c.79.33,1.46.79,2.02,1.39s1,1.32,1.31,2.17c.31.84.46,1.78.46,2.81ZM973.37,508.06c0-.94-.13-1.78-.39-2.52-.26-.75-.63-1.38-1.1-1.9-.47-.52-1.04-.91-1.71-1.19-.66-.27-1.4-.41-2.2-.41s-1.53.14-2.19.41c-.66.28-1.23.67-1.71,1.19-.48.52-.85,1.15-1.11,1.9s-.39,1.59-.39,2.52.13,1.78.39,2.53c.26.74.63,1.37,1.11,1.89.48.52,1.05.91,1.71,1.18.66.27,1.39.41,2.19.41s1.53-.14,2.2-.41c.66-.27,1.23-.67,1.71-1.18.47-.52.84-1.15,1.1-1.89.26-.74.39-1.58.39-2.53Z"/>
          <path class="cls-3" d="M994.46,514.77h-.75c-.09,0-.16-.02-.22-.07-.06-.05-.1-.11-.13-.18l-1.57-3.9h-6.59l-1.57,3.9c-.03.07-.07.13-.13.18s-.14.08-.23.08h-.74l5.49-13.41h.96l5.49,13.41ZM991.49,509.9l-2.73-6.78c-.09-.22-.19-.49-.27-.8-.04.15-.08.3-.12.43-.04.14-.09.26-.14.37l-2.73,6.77h6Z"/>
          <path class="cls-3" d="M1016.73,501.36v13.41h-.84v-11.43c0-.16,0-.34.03-.52l-5.28,9.37c-.09.16-.21.25-.38.25h-.15c-.16,0-.29-.08-.38-.25l-5.42-9.39c.02.19.03.37.03.54v11.43h-.85v-13.41h.67c.09,0,.16,0,.21.03s.1.07.15.15l5.41,9.33c.09.18.18.37.25.57.04-.1.08-.2.12-.3.04-.1.09-.19.14-.28l5.26-9.32c.05-.08.1-.13.16-.15.05-.02.12-.03.21-.03h.66Z"/>
          <path class="cls-3" d="M1032.03,514.77h-.75c-.09,0-.16-.02-.22-.07-.06-.05-.1-.11-.13-.18l-1.57-3.9h-6.59l-1.57,3.9c-.03.07-.07.13-.13.18s-.14.08-.23.08h-.74l5.49-13.41h.96l5.49,13.41ZM1029.06,509.9l-2.73-6.78c-.09-.22-.19-.49-.27-.8-.04.15-.08.3-.12.43s-.09.26-.14.37l-2.73,6.77h6Z"/>
          <path class="cls-3" d="M1045.75,501.36v13.41h-.46c-.08,0-.15-.01-.2-.04-.05-.03-.11-.08-.16-.15l-8.71-11.64c.02.19.03.37.03.54v11.29h-.85v-13.41h.48c.09,0,.16.01.2.03.05.02.1.07.16.15l8.69,11.61c-.02-.19-.03-.37-.03-.54v-11.25h.84Z"/>
          <path class="cls-3" d="M1061.56,508.69v4.77c-.67.47-1.38.84-2.14,1.09-.76.25-1.61.38-2.56.38-1.06,0-2.02-.16-2.86-.49-.85-.33-1.57-.79-2.17-1.38-.6-.6-1.05-1.32-1.37-2.17-.32-.85-.48-1.79-.48-2.82s.16-1.98.47-2.82.76-1.56,1.35-2.16c.59-.6,1.29-1.06,2.12-1.38s1.76-.49,2.8-.49c.51,0,.98.04,1.42.11s.84.17,1.21.31c.37.14.72.3,1.04.5.32.2.63.43.93.69l-.26.42c-.09.15-.22.19-.4.11-.09-.04-.23-.13-.41-.27-.18-.14-.42-.28-.73-.44-.31-.15-.69-.29-1.15-.41-.46-.12-1.02-.18-1.67-.18-.87,0-1.66.14-2.36.42-.7.28-1.3.68-1.8,1.19-.5.52-.88,1.15-1.15,1.9-.27.75-.4,1.58-.4,2.51s.13,1.79.4,2.54.66,1.39,1.17,1.91c.51.52,1.13.93,1.85,1.2.73.28,1.55.42,2.46.42.4,0,.77-.03,1.1-.08s.66-.12.97-.21c.31-.09.6-.21.89-.34s.58-.29.88-.46v-3.61h-2.57c-.07,0-.13-.02-.18-.07-.05-.04-.07-.09-.07-.15v-.53h3.7Z"/>
          <path class="cls-3" d="M1066.89,514.77h-.98v-13.41h.98v13.41Z"/>
          <path class="cls-3" d="M1082.19,514.77h-.75c-.09,0-.16-.02-.22-.07-.06-.05-.1-.11-.13-.18l-1.57-3.9h-6.59l-1.57,3.9c-.03.07-.07.13-.13.18s-.14.08-.23.08h-.74l5.49-13.41h.96l5.49,13.41ZM1079.23,509.9l-2.73-6.78c-.09-.22-.19-.49-.27-.8-.04.15-.08.3-.12.43s-.09.26-.14.37l-2.73,6.77h6Z"/>
          <path class="cls-3" d="M1094.81,514.77h-.83c-.11,0-.2-.02-.27-.05-.07-.04-.14-.1-.2-.2l-4.3-5.44c-.05-.07-.1-.13-.16-.18s-.11-.09-.18-.12c-.07-.03-.15-.05-.24-.06-.09-.01-.2-.02-.34-.02h-1.75v6.07h-.98v-13.41h3.43c1.54,0,2.7.3,3.46.9.77.6,1.15,1.47,1.15,2.63,0,.51-.09.98-.27,1.4-.18.42-.43.8-.76,1.11s-.73.58-1.2.78-1,.34-1.59.41c.15.09.29.22.41.38l4.62,5.8ZM1088.86,507.99c.59,0,1.13-.07,1.6-.21.47-.14.87-.35,1.19-.61.33-.27.57-.59.74-.96.17-.37.26-.79.26-1.26,0-.95-.31-1.66-.93-2.12-.62-.46-1.53-.69-2.73-.69h-2.46v5.86h2.32Z"/>
          <path class="cls-3" d="M1106.26,513.97l-.02.81h-8.04v-13.41h8.04v.81h-7.06v5.42h5.88v.79h-5.88v5.59h7.08Z"/>
        </g>
        <g>
          <circle class="cls-13" cx="992.21" cy="351.84" r="65.74"/>
          <g>
            <path class="cls-3" d="M952.13,377.73c1.09,1.45,2.13,2.95,3.27,4.35,2.55,3.13,5.48,5.88,8.75,8.26.76.55.75.55,1.43-.13,2.13-2.13,4.29-4.23,6.37-6.4,1.01-1.05,2.2-1.47,3.6-1.47,8.51,0,17.01,0,25.52,0,9.41,0,18.82,0,28.22.05.81,0,1.69.13,2.41.47,1.76.82,2.39,2.97,1.44,4.65-.41.72-.89,1.42-1.46,2.02-7.26,7.54-15.95,12.67-26.1,15.21-2.71.68-5.5,1.08-8.27,1.4-2.3.26-4.65.32-6.97.27-4.37-.11-8.68-.79-12.89-2-1.53-.44-2.53-1.71-2.6-3.2-.08-1.47.81-2.84,2.23-3.41.75-.3,1.53-.3,2.32-.09,3.42.92,6.88,1.5,10.43,1.66,9.55.43,18.45-1.73,26.66-6.63,1.65-.99,3.24-2.09,4.85-3.14-.02-.06-.05-.12-.07-.19-.2-.01-.41-.03-.61-.03-8.4-.01-16.79-.01-25.19-.03-6.07-.01-12.13-.04-18.2-.08-.62,0-1.06.16-1.51.6-2.53,2.57-5.08,5.11-7.64,7.65-1.53,1.52-3.17,1.68-5,.52-8.64-5.49-15.27-12.8-19.85-21.96-1.39-2.77.32-5.6,3.42-5.61,7.39-.01,14.77,0,22.16,0,22.97,0,45.94,0,68.91,0,1.34,0,2.54.3,3.38,1.42.84,1.12.94,2.36.38,3.61-.6,1.32-1.72,1.94-3.15,2.03-.31.02-.62,0-.92,0-27.96,0-55.92,0-83.88,0-.44,0-.87,0-1.31,0-.05.06-.09.12-.14.19Z"/>
            <path class="cls-3" d="M992.25,365.55c-14.26,0-28.53-.02-42.79,0-5.26,0-10.5-3.77-11.62-9.76-1.23-6.58,3.04-12.75,9.6-14.03.64-.13,1.31-.18,1.96-.18,28.57,0,57.14,0,85.71,0,5.34,0,10.32,4.12,11.43,9.46,1.23,5.92-2,11.78-7.64,13.83-1.26.46-2.57.69-3.93.69-14.24-.01-28.48,0-42.72,0ZM992.17,358.59h0c14.22,0,28.44,0,42.66,0,3.24,0,5.62-3.1,4.82-6.25-.61-2.4-2.6-3.8-5.39-3.8-16.79,0-33.58,0-50.37,0-11.38,0-22.77,0-34.15,0-3.83,0-6.28,3.92-4.55,7.29.92,1.79,2.44,2.74,4.47,2.74,14.17.01,28.35,0,42.52,0Z"/>
            <path class="cls-3" d="M1021.35,314.07c-1.76-1.14-3.49-2.35-5.29-3.42-4.88-2.89-10.16-4.75-15.73-5.73-3.33-.59-6.71-.82-10.09-.67-7.24.34-14.1,2.16-20.5,5.6-.92.5-1.84.89-2.94.6-1.52-.41-2.48-1.46-2.73-3.1-.18-1.2.59-2.66,1.81-3.34,2.71-1.51,5.54-2.75,8.47-3.76,4.06-1.39,8.21-2.4,12.49-2.7,2.71-.19,5.45-.39,8.15-.23,12.7.74,23.88,5.29,33.44,13.71,1.48,1.3,2.83,2.75,4.21,4.16,1.14,1.16,1.37,2.54.7,4-.66,1.45-1.93,2.05-3.48,2.05-7.25,0-14.51,0-21.76,0-17.91,0-35.83,0-53.74,0-2,0-3.34-1.09-3.72-3.02-.37-1.89,1.27-3.93,3.21-3.93,8.59-.01,17.19,0,25.78,0,13.72,0,27.43,0,41.15,0,.15,0,.3,0,.46,0,.04-.07.07-.14.11-.21Z"/>
            <path class="cls-3" d="M969.43,327.64c4.34-3.58,10.49-3.74,15.03.07,4.85-4.05,11.09-3.4,15.08-.02.54-.38,1.08-.79,1.65-1.14,4.11-2.5,9.37-2.13,13.1.94.35.29.53.28.87,0,4.07-3.35,9.88-3.46,14.07-.27.4.3.65.33,1.06.02,2.25-1.71,4.8-2.48,7.64-2.3,1.59.1,3.07,1.4,3.24,2.95.19,1.8-.85,3.45-2.48,3.86-.44.11-.91.15-1.36.15-2.01,0-3.42.91-4.25,2.75-.5,1.13-1.31,1.91-2.56,2.15-1.77.34-3.29-.44-4.01-2.09-.6-1.38-1.57-2.31-3.04-2.67-2.16-.53-4.25.46-5.13,2.54-1.07,2.51-3.7,2.77-5.46,1.93-.83-.39-1.35-1.08-1.72-1.91-1.26-2.78-4.53-3.6-6.86-1.69-.52.43-.95,1.04-1.24,1.66-.7,1.47-1.76,2.35-3.42,2.34-1.68,0-2.86-.79-3.54-2.36-.75-1.71-2.1-2.62-3.97-2.64-1.93-.02-3.35.86-4.11,2.63-1.19,2.79-4.21,2.84-5.74,1.66-.55-.42-.99-1.06-1.3-1.69-1.35-2.76-4.66-3.53-6.95-1.52-.54.47-.94,1.16-1.26,1.81-1.07,2.13-3.61,2.81-5.5,1.34-.48-.37-.87-.94-1.13-1.5-.88-1.84-2.27-2.82-4.32-2.74-1.9.08-3.19,1.08-3.94,2.8-.6,1.37-1.68,2.15-3.17,2.18-1.45.03-2.65-.6-3.25-1.95-.95-2.16-2.51-3.14-4.86-3.06-1.79.06-3.25-1.4-3.4-3.19-.15-1.79,1.08-3.48,2.83-3.71,1.9-.25,3.78,0,5.53.8.93.43,1.79,1.01,2.66,1.56.28.18.45.2.74,0,4.76-3.39,9.68-3.3,14.5.28Z"/>
          </g>
        </g>
      </g>
    </g>
  </g>
  <g id="INTERIOR">
    <g id="TEXT-2" data-name="TEXT">
      <text class="cls-1" transform="translate(354.56 68.18)"><tspan x="0" y="0">6</tspan></text>
      <g>
        <path class="cls-3" d="M29.83,48.05h1.98v5.13h2.12v-5.13h1.98v12.6h-1.98v-5.67h-2.12v5.67h-1.98v-12.6Z"/>
        <path class="cls-3" d="M37.24,57.67v-6.63c0-2.02,1.06-3.17,3.01-3.17s3.01,1.15,3.01,3.17v6.63c0,2.02-1.06,3.17-3.01,3.17s-3.01-1.15-3.01-3.17ZM41.28,57.79v-6.88c0-.9-.4-1.24-1.03-1.24s-1.03.34-1.03,1.24v6.88c0,.9.4,1.24,1.03,1.24s1.03-.34,1.03-1.24Z"/>
        <path class="cls-3" d="M46.06,49.85h-2.07v-1.8h6.12v1.8h-2.07v10.8h-1.98v-10.8Z"/>
        <path class="cls-3" d="M49.46,53.45h3.96v1.8h-3.96v-1.8Z"/>
        <path class="cls-3" d="M54.61,48.05h3.02c1.98,0,2.95,1.1,2.95,3.11v6.37c0,2.02-.97,3.11-2.95,3.11h-3.02v-12.6ZM57.6,58.85c.63,0,1.01-.32,1.01-1.22v-6.55c0-.9-.38-1.22-1.01-1.22h-1.01v9h1.01Z"/>
        <path class="cls-3" d="M61.78,57.67v-6.63c0-2.02,1.06-3.17,3.01-3.17s3.01,1.15,3.01,3.17v6.63c0,2.02-1.06,3.17-3.01,3.17s-3.01-1.15-3.01-3.17ZM65.81,57.79v-6.88c0-.9-.4-1.24-1.03-1.24s-1.03.34-1.03,1.24v6.88c0,.9.4,1.24,1.03,1.24s1.03-.34,1.03-1.24Z"/>
        <path class="cls-3" d="M68.98,57.67v-6.63c0-2.02,1.01-3.17,2.95-3.17s2.95,1.15,2.95,3.17v1.08h-1.87v-1.21c0-.9-.4-1.24-1.03-1.24s-1.03.34-1.03,1.24v6.9c0,.9.4,1.22,1.03,1.22s1.03-.32,1.03-1.22v-2.47h-.99v-1.8h2.86v4.12c0,2.02-1.01,3.17-2.95,3.17s-2.95-1.15-2.95-3.17Z"/>
        <path class="cls-3" d="M78.91,57.74v-6.77c0-1.94,1.01-3.1,2.92-3.1s2.92,1.15,2.92,3.1v1.33h-1.87v-1.46c0-.83-.4-1.17-.99-1.17s-.99.34-.99,1.17v7.04c0,.83.4,1.15.99,1.15s.99-.32.99-1.15v-1.93h1.87v1.78c0,1.94-1.01,3.1-2.92,3.1s-2.92-1.15-2.92-3.1Z"/>
        <path class="cls-3" d="M85.93,48.05h1.98v10.8h3.26v1.8h-5.24v-12.6Z"/>
        <path class="cls-3" d="M93.73,48.05h2.68l2.05,12.6h-1.98l-.36-2.5v.04h-2.25l-.36,2.47h-1.84l2.05-12.6ZM95.89,56.48l-.88-6.23h-.04l-.86,6.23h1.78Z"/>
        <path class="cls-3" d="M99.02,57.67v-.72h1.87v.86c0,.9.4,1.22,1.03,1.22s1.03-.32,1.03-1.26c0-1.04-.4-1.71-1.69-2.84-1.66-1.46-2.2-2.48-2.2-3.93,0-1.98,1.03-3.13,2.95-3.13s2.88,1.15,2.88,3.17v.52h-1.87v-.65c0-.9-.36-1.24-.99-1.24s-.99.34-.99,1.21c0,.92.41,1.58,1.71,2.72,1.66,1.46,2.18,2.47,2.18,4.03,0,2.05-1.04,3.21-2.99,3.21s-2.92-1.15-2.92-3.17Z"/>
        <path class="cls-3" d="M105.71,57.67v-.72h1.87v.86c0,.9.4,1.22,1.03,1.22s1.03-.32,1.03-1.26c0-1.04-.4-1.71-1.69-2.84-1.66-1.46-2.2-2.48-2.2-3.93,0-1.98,1.03-3.13,2.95-3.13s2.88,1.15,2.88,3.17v.52h-1.87v-.65c0-.9-.36-1.24-.99-1.24s-.99.34-.99,1.21c0,.92.41,1.58,1.71,2.72,1.66,1.46,2.18,2.47,2.18,4.03,0,2.05-1.04,3.21-2.99,3.21s-2.92-1.15-2.92-3.17Z"/>
        <path class="cls-3" d="M112.75,48.05h1.98v12.6h-1.98v-12.6Z"/>
        <path class="cls-3" d="M116.08,57.74v-6.77c0-1.94,1.01-3.1,2.92-3.1s2.92,1.15,2.92,3.1v1.33h-1.87v-1.46c0-.83-.4-1.17-.99-1.17s-.99.34-.99,1.17v7.04c0,.83.4,1.15.99,1.15s.99-.32.99-1.15v-1.93h1.87v1.78c0,1.94-1.01,3.1-2.92,3.1s-2.92-1.15-2.92-3.1Z"/>
        <path class="cls-3" d="M122.99,57.67v-6.63c0-2.02,1.06-3.17,3.01-3.17s3.01,1.15,3.01,3.17v6.63c0,2.02-1.06,3.17-3.01,3.17s-3.01-1.15-3.01-3.17ZM127.03,57.79v-6.88c0-.9-.4-1.24-1.03-1.24s-1.03.34-1.03,1.24v6.88c0,.9.4,1.24,1.03,1.24s1.03-.34,1.03-1.24Z"/>
      </g>
      <text class="cls-14" transform="translate(29.09 74.46)"><tspan x="0" y="0">Wu</tspan><tspan class="cls-16" x="11.28" y="0">r</tspan><tspan class="cls-6" x="14.35" y="0">s</tspan><tspan class="cls-23" x="18.35" y="0">t</tspan><tspan x="21.47" y="0">el di pollo </tspan><tspan class="cls-9" x="57.65" y="0">c</tspan><tspan x="61.95" y="0">on insal</tspan><tspan class="cls-30" x="89.87" y="0">a</tspan><tspan x="94.21" y="0">ta di c</tspan><tspan class="cls-18" x="116.49" y="0">a</tspan><tspan class="cls-16" x="120.85" y="0">v</tspan><tspan x="125.07" y="0">olo cappu</tspan><tspan class="cls-9" x="160.29" y="0">c</tspan><tspan class="cls-5" x="164.6" y="0">ci</tspan><tspan class="cls-36" x="170.83" y="0">o</tspan><tspan x="175.21" y="0">, </tspan><tspan class="cls-8" x="179.29" y="0">c</tspan><tspan x="183.6" y="0">etriolini so</tspan><tspan class="cls-20" x="221.54" y="0">t</tspan><tspan x="224.63" y="0">ta</tspan><tspan class="cls-9" x="232.15" y="0">c</tspan><tspan x="236.45" y="0">e</tspan><tspan class="cls-23" x="240.87" y="0">t</tspan><tspan x="243.99" y="0">o e salsa </tspan><tspan class="cls-31" x="277.6" y="0">r</tspan><tspan x="280.64" y="0">osa</tspan></text>
      <g>
        <path class="cls-3" d="M29.83,88.19h1.98v5.13h2.12v-5.13h1.98v12.6h-1.98v-5.67h-2.12v5.67h-1.98v-12.6Z"/>
        <path class="cls-3" d="M37.24,97.8v-6.63c0-2.02,1.06-3.17,3.01-3.17s3.01,1.15,3.01,3.17v6.63c0,2.02-1.06,3.17-3.01,3.17s-3.01-1.15-3.01-3.17ZM41.28,97.93v-6.88c0-.9-.4-1.24-1.03-1.24s-1.03.34-1.03,1.24v6.88c0,.9.4,1.24,1.03,1.24s1.03-.34,1.03-1.24Z"/>
        <path class="cls-3" d="M46.06,89.99h-2.07v-1.8h6.12v1.8h-2.07v10.8h-1.98v-10.8Z"/>
        <path class="cls-3" d="M49.46,93.59h3.96v1.8h-3.96v-1.8Z"/>
        <path class="cls-3" d="M54.61,88.19h3.02c1.98,0,2.95,1.1,2.95,3.11v6.37c0,2.02-.97,3.11-2.95,3.11h-3.02v-12.6ZM57.6,98.99c.63,0,1.01-.32,1.01-1.22v-6.55c0-.9-.38-1.22-1.01-1.22h-1.01v9h1.01Z"/>
        <path class="cls-3" d="M61.78,97.8v-6.63c0-2.02,1.06-3.17,3.01-3.17s3.01,1.15,3.01,3.17v6.63c0,2.02-1.06,3.17-3.01,3.17s-3.01-1.15-3.01-3.17ZM65.81,97.93v-6.88c0-.9-.4-1.24-1.03-1.24s-1.03.34-1.03,1.24v6.88c0,.9.4,1.24,1.03,1.24s1.03-.34,1.03-1.24Z"/>
        <path class="cls-3" d="M68.98,97.8v-6.63c0-2.02,1.01-3.17,2.95-3.17s2.95,1.15,2.95,3.17v1.08h-1.87v-1.21c0-.9-.4-1.24-1.03-1.24s-1.03.34-1.03,1.24v6.9c0,.9.4,1.22,1.03,1.22s1.03-.32,1.03-1.22v-2.47h-.99v-1.8h2.86v4.12c0,2.02-1.01,3.17-2.95,3.17s-2.95-1.15-2.95-3.17Z"/>
        <path class="cls-3" d="M78.7,97.8v-.72h1.87v.86c0,.9.4,1.22,1.03,1.22s1.03-.32,1.03-1.26c0-1.04-.4-1.71-1.69-2.84-1.66-1.46-2.2-2.48-2.2-3.93,0-1.98,1.03-3.13,2.95-3.13s2.88,1.15,2.88,3.17v.52h-1.87v-.65c0-.9-.36-1.24-.99-1.24s-.99.34-.99,1.21c0,.92.41,1.58,1.71,2.72,1.66,1.46,2.18,2.47,2.18,4.03,0,2.05-1.04,3.21-2.99,3.21s-2.92-1.15-2.92-3.17Z"/>
        <path class="cls-3" d="M85.66,97.8v-9.61h1.98v9.76c0,.9.38,1.22,1.01,1.22s1.01-.32,1.01-1.22v-9.76h1.91v9.61c0,2.02-1.01,3.17-2.95,3.17s-2.95-1.15-2.95-3.17Z"/>
        <path class="cls-3" d="M92.97,88.19h2.92c1.98,0,2.95,1.1,2.95,3.11v1.24c0,2.02-.97,3.12-2.95,3.12h-.94v5.13h-1.98v-12.6ZM95.89,93.86c.63,0,.97-.29.97-1.19v-1.49c0-.9-.34-1.19-.97-1.19h-.94v3.87h.94Z"/>
        <path class="cls-3" d="M99.92,88.19h5.4v1.8h-3.42v3.33h2.72v1.8h-2.72v3.87h3.42v1.8h-5.4v-12.6Z"/>
        <path class="cls-3" d="M106.45,88.19h2.93c2.05,0,2.93.95,2.93,2.9v.77c0,1.3-.41,2.12-1.3,2.48v.04c.99.31,1.31,1.24,1.31,2.67v2.21c0,.61.02,1.06.22,1.53h-2.02c-.11-.32-.18-.52-.18-1.55v-2.3c0-1.17-.34-1.55-1.24-1.55h-.68v5.4h-1.98v-12.6ZM109.15,93.59c.74,0,1.19-.32,1.19-1.33v-.97c0-.9-.31-1.3-1.01-1.3h-.9v3.6h.72Z"/>
      </g>
      <text class="cls-14" transform="translate(29.09 114.59)"><tspan x="0" y="0">Wu</tspan><tspan class="cls-16" x="11.28" y="0">r</tspan><tspan class="cls-6" x="14.35" y="0">s</tspan><tspan class="cls-23" x="18.35" y="0">t</tspan><tspan x="21.47" y="0">el di pollo </tspan><tspan class="cls-9" x="57.65" y="0">c</tspan><tspan x="61.95" y="0">on ch</tspan><tspan class="cls-9" x="81.83" y="0">e</tspan><tspan class="cls-5" x="86.27" y="0">dda</tspan><tspan class="cls-32" x="99.81" y="0">r</tspan><tspan class="cls-27" x="102.02" y="0">, cipolla fri</tspan><tspan class="cls-20" x="139.8" y="0">t</tspan><tspan x="142.89" y="0">ta e chilli </tspan><tspan class="cls-9" x="177.4" y="0">c</tspan><tspan x="181.71" y="0">on carne </tspan><tspan x="0" y="14.4">(manzo macin</tspan><tspan class="cls-30" x="51.78" y="14.4">a</tspan><tspan class="cls-26" x="56.12" y="14.4">t</tspan><tspan class="cls-6" x="59.24" y="14.4">o</tspan><tspan class="cls-27" x="63.62" y="14.4">, pepe</tspan><tspan class="cls-31" x="85.7" y="14.4">r</tspan><tspan x="88.74" y="14.4">oni, cipoll</tspan><tspan class="cls-18" x="122.92" y="14.4">e</tspan><tspan x="127.32" y="14.4">, </tspan><tspan class="cls-28" x="131.4" y="14.4">f</tspan><tspan x="134.44" y="14.4">agioli, pomodo</tspan><tspan class="cls-31" x="187.31" y="14.4">r</tspan><tspan x="190.35" y="14.4">o e spezie)</tspan></text>
      <text class="cls-1" transform="translate(354.56 115.51)"><tspan x="0" y="0">7</tspan></text>
      <g>
        <path class="cls-3" d="M34,155.29c-.38.14-.83.22-1.31.22-1.94,0-3.01-1.15-3.01-3.17v-6.63c0-2.02,1.06-3.17,3.01-3.17s3.01,1.15,3.01,3.17v6.63c0,.86-.2,1.55-.56,2.07.14.25.38.29.74.29h.31v1.8h-.52c-.74,0-1.42-.27-1.66-1.21ZM33.72,152.46v-6.88c0-.9-.4-1.24-1.03-1.24s-1.03.34-1.03,1.24v6.88c0,.9.4,1.24,1.03,1.24s1.03-.34,1.03-1.24Z"/>
        <path class="cls-3" d="M36.95,152.34v-9.61h1.98v9.76c0,.9.38,1.22,1.01,1.22s1.01-.32,1.01-1.22v-9.76h1.91v9.61c0,2.02-1.01,3.17-2.95,3.17s-2.95-1.15-2.95-3.17Z"/>
        <path class="cls-3" d="M44.26,142.72h5.4v1.8h-3.42v3.33h2.72v1.8h-2.72v3.87h3.42v1.8h-5.4v-12.6Z"/>
        <path class="cls-3" d="M50.49,152.34v-.72h1.87v.86c0,.9.4,1.22,1.03,1.22s1.03-.32,1.03-1.26c0-1.04-.4-1.71-1.69-2.84-1.66-1.46-2.2-2.48-2.2-3.93,0-1.98,1.03-3.13,2.95-3.13s2.88,1.15,2.88,3.17v.52h-1.87v-.65c0-.9-.36-1.24-.99-1.24s-.99.34-.99,1.21c0,.92.41,1.58,1.71,2.72,1.66,1.46,2.18,2.47,2.18,4.03,0,2.05-1.04,3.21-2.99,3.21s-2.92-1.15-2.92-3.17Z"/>
        <path class="cls-3" d="M59,142.72h2.68l2.05,12.6h-1.98l-.36-2.5v.04h-2.25l-.36,2.47h-1.84l2.05-12.6ZM61.17,151.15l-.88-6.23h-.04l-.86,6.23h1.78Z"/>
        <path class="cls-3" d="M64.69,142.72h3.03c1.98,0,2.95,1.1,2.95,3.11v6.37c0,2.02-.97,3.11-2.95,3.11h-3.03v-12.6ZM67.68,153.53c.63,0,1.01-.32,1.01-1.22v-6.55c0-.9-.38-1.22-1.01-1.22h-1.01v9h1.01Z"/>
        <path class="cls-3" d="M72,142.72h1.98v12.6h-1.98v-12.6Z"/>
        <path class="cls-3" d="M75.46,142.72h1.98v10.8h3.26v1.8h-5.24v-12.6Z"/>
        <path class="cls-3" d="M81.65,142.72h1.98v10.8h3.26v1.8h-5.24v-12.6Z"/>
        <path class="cls-3" d="M89.44,142.72h2.68l2.05,12.6h-1.98l-.36-2.5v.04h-2.25l-.36,2.47h-1.84l2.05-12.6ZM91.6,151.15l-.88-6.23h-.04l-.86,6.23h1.78Z"/>
        <path class="cls-3" d="M97.88,152.41v-6.77c0-1.94,1.01-3.1,2.92-3.1s2.92,1.15,2.92,3.1v1.33h-1.87v-1.46c0-.83-.4-1.17-.99-1.17s-.99.34-.99,1.17v7.04c0,.83.4,1.15.99,1.15s.99-.32.99-1.15v-1.93h1.87v1.78c0,1.94-1.01,3.1-2.92,3.1s-2.92-1.15-2.92-3.1Z"/>
        <path class="cls-3" d="M104.9,142.72h1.98v10.8h3.26v1.8h-5.24v-12.6Z"/>
        <path class="cls-3" d="M112.7,142.72h2.68l2.05,12.6h-1.98l-.36-2.5v.04h-2.25l-.36,2.47h-1.84l2.05-12.6ZM114.86,151.15l-.88-6.23h-.04l-.86,6.23h1.78Z"/>
        <path class="cls-3" d="M117.99,152.34v-.72h1.87v.86c0,.9.4,1.22,1.03,1.22s1.03-.32,1.03-1.26c0-1.04-.4-1.71-1.69-2.84-1.66-1.46-2.2-2.48-2.2-3.93,0-1.98,1.03-3.13,2.95-3.13s2.88,1.15,2.88,3.17v.52h-1.87v-.65c0-.9-.36-1.24-.99-1.24s-.99.34-.99,1.21c0,.92.41,1.58,1.71,2.72,1.66,1.46,2.18,2.47,2.18,4.03,0,2.05-1.04,3.21-2.99,3.21s-2.92-1.15-2.92-3.17Z"/>
        <path class="cls-3" d="M124.68,152.34v-.72h1.87v.86c0,.9.4,1.22,1.03,1.22s1.03-.32,1.03-1.26c0-1.04-.4-1.71-1.69-2.84-1.66-1.46-2.2-2.48-2.2-3.93,0-1.98,1.03-3.13,2.95-3.13s2.88,1.15,2.88,3.17v.52h-1.87v-.65c0-.9-.36-1.24-.99-1.24s-.99.34-.99,1.21c0,.92.41,1.58,1.71,2.72,1.66,1.46,2.18,2.47,2.18,4.03,0,2.05-1.04,3.21-2.99,3.21s-2.92-1.15-2.92-3.17Z"/>
        <path class="cls-3" d="M131.72,142.72h1.98v12.6h-1.98v-12.6Z"/>
        <path class="cls-3" d="M135.05,152.41v-6.77c0-1.94,1.01-3.1,2.92-3.1s2.92,1.15,2.92,3.1v1.33h-1.87v-1.46c0-.83-.4-1.17-.99-1.17s-.99.34-.99,1.17v7.04c0,.83.4,1.15.99,1.15s.99-.32.99-1.15v-1.93h1.87v1.78c0,1.94-1.01,3.1-2.92,3.1s-2.92-1.15-2.92-3.1Z"/>
        <path class="cls-3" d="M143.6,142.72h2.68l2.05,12.6h-1.98l-.36-2.5v.04h-2.25l-.36,2.47h-1.84l2.05-12.6ZM145.76,151.15l-.88-6.23h-.04l-.86,6.23h1.78Z"/>
      </g>
      <text class="cls-14" transform="translate(29.09 169.13)"><tspan class="cls-22" x="0" y="0">T</tspan><tspan x="3.64" y="0">o</tspan><tspan class="cls-29" x="8.08" y="0">r</tspan><tspan x="11.26" y="0">tilla messicana </tspan><tspan class="cls-8" x="67.75" y="0">c</tspan><tspan x="72.06" y="0">on pepe</tspan><tspan class="cls-31" x="101.06" y="0">r</tspan><tspan x="104.1" y="0">oni, cipolla, ch</tspan><tspan class="cls-9" x="155.61" y="0">e</tspan><tspan class="cls-5" x="160.05" y="0">ddar e mais</tspan></text>
      <text class="cls-1" transform="translate(354.56 162.85)"><tspan x="0" y="0">6</tspan></text>
      <path class="cls-34" d="M21.75,163.59c.27.94.28,1.75.26,2.19-.01.2.13.38.33.4h0c.21.03.4-.12.43-.33.2-1.48.56-4.34-2.36-8.24-3.51-4.7-7.71-2.94-10.23-7.62,0,0,1.47,2.09,7.21,3.69,4.54,1.26,5.75,6.05,5.78,6.13.02-.06,1.23-4.13-1.72-7.71-3.28-3.98-9.81-1.5-12.99-6.58,0,0-2.8,7.19,1.37,12.24,2.75,3.34,6.61,3.34,9.52,3.75,1.14.16,2.09.98,2.41,2.09Z"/>
      <g>
        <line class="cls-11" x1="149.24" y1="37.89" x2="183.38" y2="37.89"/>
        <g>
          <path class="cls-3" d="M152.11,27.38c.09.66.28,1.15.55,1.47.5.59,1.35.89,2.56.89.72,0,1.31-.08,1.76-.23.86-.3,1.29-.86,1.29-1.67,0-.48-.21-.84-.63-1.1-.42-.25-1.09-.48-2-.67l-1.56-.34c-1.53-.34-2.58-.71-3.16-1.1-.97-.66-1.46-1.7-1.46-3.12,0-1.29.47-2.36,1.42-3.21s2.34-1.28,4.18-1.28c1.54,0,2.84.4,3.93,1.21,1.08.8,1.65,1.97,1.71,3.5h-2.89c-.05-.87-.44-1.48-1.16-1.85-.48-.24-1.08-.36-1.79-.36-.79,0-1.43.16-1.9.47-.47.31-.71.75-.71,1.31,0,.51.23.9.7,1.15.3.17.94.37,1.91.6l2.53.6c1.11.26,1.94.61,2.49,1.04.86.68,1.29,1.66,1.29,2.94s-.51,2.41-1.53,3.28-2.45,1.3-4.31,1.3-3.38-.43-4.47-1.28-1.63-2.03-1.63-3.53h2.87Z"/>
          <path class="cls-3" d="M172.94,25.59c-.84.7-2.05,1.05-3.61,1.05h-3v5.18h-2.99v-14.39h6.18c1.42,0,2.56.37,3.41,1.11.85.74,1.27,1.89,1.27,3.45,0,1.7-.42,2.9-1.26,3.6ZM170.65,20.41c-.38-.32-.92-.48-1.6-.48h-2.71v4.24h2.71c.69,0,1.22-.17,1.6-.52s.57-.89.57-1.64-.19-1.28-.57-1.6Z"/>
          <path class="cls-3" d="M187.26,19.98h-7.62v3.06h6.99v2.5h-6.99v3.7h7.97v2.59h-10.91v-14.39h10.56v2.55Z"/>
          <path class="cls-3" d="M191.33,18.93c1.16-1.19,2.63-1.78,4.42-1.78,2.4,0,4.15.79,5.26,2.38.61.89.94,1.79.99,2.69h-3.01c-.19-.69-.44-1.21-.74-1.56-.54-.62-1.33-.94-2.38-.94s-1.92.44-2.54,1.32c-.62.88-.93,2.13-.93,3.75s.33,2.82.98,3.63c.65.8,1.48,1.21,2.49,1.21s1.82-.35,2.36-1.04c.3-.37.55-.93.75-1.67h2.99c-.26,1.57-.92,2.85-1.98,3.83s-2.42,1.47-4.07,1.47c-2.05,0-3.66-.66-4.83-1.99-1.17-1.33-1.76-3.16-1.76-5.49,0-2.51.67-4.45,2-5.81Z"/>
          <path class="cls-3" d="M207.15,31.82h-2.99v-14.39h2.99v14.39Z"/>
          <path class="cls-3" d="M214.07,17.43h3.4l5.09,14.39h-3.26l-.95-2.96h-5.3l-.98,2.96h-3.15l5.14-14.39ZM213.88,26.38h3.69l-1.82-5.66-1.87,5.66Z"/>
          <path class="cls-3" d="M224.4,17.43h3.01v11.81h7.19v2.59h-10.2v-14.39Z"/>
          <path class="cls-3" d="M247.26,19.98h-7.62v3.06h6.99v2.5h-6.99v3.7h7.97v2.59h-10.91v-14.39h10.56v2.55Z"/>
        </g>
      </g>
      <text class="cls-1" transform="translate(354.56 253.29)"><tspan x="0" y="0">5</tspan></text>
      <g>
        <path class="cls-3" d="M31.38,234.96h-2.07v-1.8h6.12v1.8h-2.07v10.8h-1.98v-10.8Z"/>
        <path class="cls-3" d="M36.16,242.77v-6.63c0-2.02,1.06-3.17,3.01-3.17s3.01,1.15,3.01,3.17v6.63c0,2.02-1.06,3.17-3.01,3.17s-3.01-1.15-3.01-3.17ZM40.2,242.9v-6.88c0-.9-.4-1.24-1.03-1.24s-1.03.34-1.03,1.24v6.88c0,.9.4,1.24,1.03,1.24s1.03-.34,1.03-1.24Z"/>
        <path class="cls-3" d="M43.51,233.16h2.94c2.05,0,2.93.95,2.93,2.9v.77c0,1.3-.41,2.12-1.3,2.48v.04c.99.31,1.31,1.24,1.31,2.67v2.21c0,.61.02,1.06.22,1.53h-2.02c-.11-.32-.18-.52-.18-1.55v-2.3c0-1.17-.34-1.55-1.24-1.55h-.68v5.4h-1.98v-12.6ZM46.21,238.56c.74,0,1.19-.32,1.19-1.33v-.97c0-.9-.31-1.3-1.01-1.3h-.9v3.6h.72Z"/>
        <path class="cls-3" d="M52.27,234.96h-2.07v-1.8h6.12v1.8h-2.07v10.8h-1.98v-10.8Z"/>
        <path class="cls-3" d="M57.98,233.16h2.68l2.05,12.6h-1.98l-.36-2.5v.04h-2.25l-.36,2.47h-1.84l2.05-12.6ZM60.14,241.59l-.88-6.23h-.04l-.86,6.23h1.78Z"/>
        <path class="cls-3" d="M66.55,233.16h5.24v1.8h-3.26v3.51h2.56v1.8h-2.56v5.49h-1.98v-12.6Z"/>
        <path class="cls-3" d="M72.59,242.77v-6.63c0-2.02,1.06-3.17,3.01-3.17s3.01,1.15,3.01,3.17v6.63c0,2.02-1.06,3.17-3.01,3.17s-3.01-1.15-3.01-3.17ZM76.63,242.9v-6.88c0-.9-.4-1.24-1.03-1.24s-1.03.34-1.03,1.24v6.88c0,.9.4,1.24,1.03,1.24s1.03-.34,1.03-1.24Z"/>
        <path class="cls-3" d="M79.79,242.77v-6.63c0-2.02,1.01-3.17,2.95-3.17s2.95,1.15,2.95,3.17v1.08h-1.87v-1.21c0-.9-.4-1.24-1.03-1.24s-1.03.34-1.03,1.24v6.9c0,.9.4,1.22,1.03,1.22s1.03-.32,1.03-1.22v-2.47h-.99v-1.8h2.86v4.12c0,2.02-1.01,3.17-2.95,3.17s-2.95-1.15-2.95-3.17Z"/>
        <path class="cls-3" d="M86.98,233.16h1.98v10.8h3.26v1.8h-5.24v-12.6Z"/>
        <path class="cls-3" d="M93.17,233.16h1.98v12.6h-1.98v-12.6Z"/>
        <path class="cls-3" d="M96.62,233.16h5.4v1.8h-3.42v3.33h2.72v1.8h-2.72v3.87h3.42v1.8h-5.4v-12.6Z"/>
        <path class="cls-3" d="M106.04,233.16h3.02c1.98,0,2.95,1.1,2.95,3.11v6.37c0,2.02-.97,3.11-2.95,3.11h-3.02v-12.6ZM109.03,243.96c.63,0,1.01-.32,1.01-1.22v-6.55c0-.9-.38-1.22-1.01-1.22h-1.01v9h1.01Z"/>
        <path class="cls-3" d="M113.35,233.16h1.98v12.6h-1.98v-12.6Z"/>
        <path class="cls-3" d="M119.68,233.16h2.83l1.26,9.02h.04l1.26-9.02h2.83v12.6h-1.87v-9.54h-.04l-1.44,9.54h-1.66l-1.44-9.54h-.04v9.54h-1.73v-12.6Z"/>
        <path class="cls-3" d="M129.36,233.16h1.98v12.6h-1.98v-12.6Z"/>
        <path class="cls-3" d="M132.82,233.16h5.4v1.8h-3.42v3.33h2.72v1.8h-2.72v3.87h3.42v1.8h-5.4v-12.6Z"/>
        <path class="cls-3" d="M139.35,233.16h1.98v10.8h3.26v1.8h-5.24v-12.6Z"/>
        <path class="cls-3" d="M145.55,233.16h5.4v1.8h-3.42v3.33h2.72v1.8h-2.72v3.87h3.42v1.8h-5.4v-12.6Z"/>
      </g>
      <text class="cls-14" transform="translate(29.09 259.56)"><tspan x="0" y="0">Con miel</tspan><tspan class="cls-18" x="31" y="0">e</tspan><tspan x="35.39" y="0">, c</tspan><tspan class="cls-31" x="43.75" y="0">r</tspan><tspan class="cls-5" x="46.79" y="0">ema alla </tspan><tspan class="cls-25" x="79.28" y="0">v</tspan><tspan x="83.41" y="0">aniglia e crumble</tspan></text>
      <g>
        <path class="cls-3" d="M29.7,282.98v-6.77c0-1.94,1.01-3.1,2.92-3.1s2.92,1.15,2.92,3.1v1.33h-1.87v-1.46c0-.83-.4-1.17-.99-1.17s-.99.34-.99,1.17v7.04c0,.83.4,1.15.99,1.15s.99-.32.99-1.15v-1.93h1.87v1.78c0,1.94-1.01,3.1-2.92,3.1s-2.92-1.15-2.92-3.1Z"/>
        <path class="cls-3" d="M36.72,273.29h2.93c2.05,0,2.93.95,2.93,2.9v.77c0,1.3-.41,2.12-1.3,2.48v.04c.99.31,1.31,1.24,1.31,2.67v2.21c0,.61.02,1.06.22,1.53h-2.02c-.11-.32-.18-.52-.18-1.55v-2.3c0-1.17-.34-1.55-1.24-1.55h-.68v5.4h-1.98v-12.6ZM39.42,278.7c.74,0,1.19-.32,1.19-1.33v-.97c0-.9-.31-1.3-1.01-1.3h-.9v3.6h.72Z"/>
        <path class="cls-3" d="M43.83,282.91v-6.63c0-2.02,1.06-3.17,3.01-3.17s3.01,1.15,3.01,3.17v6.63c0,2.02-1.06,3.17-3.01,3.17s-3.01-1.15-3.01-3.17ZM47.86,283.04v-6.88c0-.9-.4-1.24-1.03-1.24s-1.03.34-1.03,1.24v6.88c0,.9.4,1.24,1.03,1.24s1.03-.34,1.03-1.24Z"/>
        <path class="cls-3" d="M50.83,282.91v-.72h1.87v.86c0,.9.4,1.22,1.03,1.22s1.03-.32,1.03-1.26c0-1.04-.4-1.71-1.69-2.84-1.66-1.46-2.2-2.48-2.2-3.93,0-1.98,1.03-3.13,2.95-3.13s2.88,1.15,2.88,3.17v.52h-1.87v-.65c0-.9-.36-1.24-.99-1.24s-.99.34-.99,1.21c0,.92.41,1.58,1.71,2.72,1.66,1.46,2.18,2.47,2.18,4.03,0,2.05-1.04,3.21-2.99,3.21s-2.92-1.15-2.92-3.17Z"/>
        <path class="cls-3" d="M59.42,275.1h-2.07v-1.8h6.12v1.8h-2.07v10.8h-1.98v-10.8Z"/>
        <path class="cls-3" d="M65.13,273.29h2.68l2.05,12.6h-1.98l-.36-2.5v.04h-2.25l-.36,2.47h-1.84l2.05-12.6ZM67.29,281.72l-.88-6.23h-.04l-.86,6.23h1.78Z"/>
        <path class="cls-3" d="M71.53,275.1h-2.07v-1.8h6.12v1.8h-2.07v10.8h-1.98v-10.8Z"/>
        <path class="cls-3" d="M77.24,273.29h2.68l2.05,12.6h-1.98l-.36-2.5v.04h-2.25l-.36,2.47h-1.84l2.05-12.6ZM79.4,281.72l-.88-6.23h-.04l-.86,6.23h1.78Z"/>
        <path class="cls-3" d="M87.34,273.29h2.68l2.05,12.6h-1.98l-.36-2.5v.04h-2.25l-.36,2.47h-1.84l2.05-12.6ZM89.5,281.72l-.88-6.23h-.04l-.86,6.23h1.78Z"/>
        <path class="cls-3" d="M93.02,273.29h1.98v10.8h3.26v1.8h-5.24v-12.6Z"/>
        <path class="cls-3" d="M102.1,273.29h1.98v10.8h3.26v1.8h-5.24v-12.6Z"/>
        <path class="cls-3" d="M108.29,273.29h1.98v12.6h-1.98v-12.6Z"/>
        <path class="cls-3" d="M111.74,273.29h2.83l1.26,9.02h.04l1.26-9.02h2.83v12.6h-1.87v-9.54h-.04l-1.44,9.54h-1.66l-1.44-9.54h-.04v9.54h-1.73v-12.6Z"/>
        <path class="cls-3" d="M121.28,282.91v-6.63c0-2.02,1.06-3.17,3.01-3.17s3.01,1.15,3.01,3.17v6.63c0,2.02-1.06,3.17-3.01,3.17s-3.01-1.15-3.01-3.17ZM125.32,283.04v-6.88c0-.9-.4-1.24-1.03-1.24s-1.03.34-1.03,1.24v6.88c0,.9.4,1.24,1.03,1.24s1.03-.34,1.03-1.24Z"/>
        <path class="cls-3" d="M128.63,273.29h2.48l1.93,7.54h.04v-7.54h1.76v12.6h-2.04l-2.38-9.2h-.04v9.2h-1.76v-12.6Z"/>
        <path class="cls-3" d="M136.31,273.29h5.4v1.8h-3.42v3.33h2.72v1.8h-2.72v3.87h3.42v1.8h-5.4v-12.6Z"/>
      </g>
      <text class="cls-14" transform="translate(29.09 299.7)"><tspan x="0" y="0">Mini c</tspan><tspan class="cls-24" x="21" y="0">r</tspan><tspan x="24.04" y="0">o</tspan><tspan class="cls-6" x="28.48" y="0">s</tspan><tspan x="32.47" y="0">t</tspan><tspan class="cls-20" x="35.6" y="0">a</tspan><tspan x="39.95" y="0">ta </tspan><tspan class="cls-9" x="49.44" y="0">c</tspan><tspan x="53.75" y="0">on c</tspan><tspan class="cls-24" x="69.03" y="0">r</tspan><tspan x="72.07" y="0">ema al limone</tspan></text>
      <text class="cls-1" transform="translate(354.56 300.62)"><tspan x="0" y="0">5</tspan></text>
      <g>
        <path class="cls-3" d="M29.83,316.49h2.99c2.05,0,2.93.95,2.93,2.9v.5c0,1.3-.4,2.11-1.28,2.47v.04c1.06.36,1.48,1.3,1.48,2.63v1.08c0,1.94-1.03,2.99-3.01,2.99h-3.12v-12.6ZM32.58,321.62c.74,0,1.19-.32,1.19-1.33v-.7c0-.9-.31-1.3-1.01-1.3h-.96v3.33h.77ZM32.94,327.29c.67,0,1.03-.31,1.03-1.24v-1.1c0-1.17-.38-1.53-1.28-1.53h-.88v3.87h1.13Z"/>
        <path class="cls-3" d="M37.1,316.49h2.93c2.05,0,2.93.95,2.93,2.9v.77c0,1.3-.41,2.12-1.3,2.48v.04c.99.31,1.31,1.24,1.31,2.67v2.21c0,.61.02,1.06.22,1.53h-2.02c-.11-.32-.18-.52-.18-1.55v-2.3c0-1.17-.34-1.55-1.24-1.55h-.68v5.4h-1.98v-12.6ZM39.8,321.89c.74,0,1.19-.32,1.19-1.33v-.97c0-.9-.31-1.3-1.01-1.3h-.9v3.6h.72Z"/>
        <path class="cls-3" d="M44.21,326.1v-6.63c0-2.02,1.06-3.17,3.01-3.17s3.01,1.15,3.01,3.17v6.63c0,2.02-1.06,3.17-3.01,3.17s-3.01-1.15-3.01-3.17ZM48.24,326.23v-6.88c0-.9-.4-1.24-1.03-1.24s-1.03.34-1.03,1.24v6.88c0,.9.4,1.24,1.03,1.24s1.03-.34,1.03-1.24Z"/>
        <path class="cls-3" d="M51.08,316.49h1.91l.88,9.69h.04l.94-9.69h2.16l.94,9.69h.04l.88-9.69h1.71l-1.28,12.6h-2.47l-.9-8.5h-.04l-.9,8.5h-2.63l-1.28-12.6Z"/>
        <path class="cls-3" d="M61.58,316.49h2.48l1.93,7.54h.04v-7.54h1.76v12.6h-2.04l-2.38-9.2h-.04v9.2h-1.76v-12.6Z"/>
        <path class="cls-3" d="M69.26,316.49h1.98v12.6h-1.98v-12.6Z"/>
        <path class="cls-3" d="M72.72,316.49h5.4v1.8h-3.42v3.33h2.72v1.8h-2.72v3.87h3.42v1.8h-5.4v-12.6Z"/>
        <path class="cls-3" d="M83.66,316.49h2.68l2.05,12.6h-1.98l-.36-2.5v.04h-2.25l-.36,2.47h-1.84l2.05-12.6ZM85.82,324.91l-.88-6.23h-.04l-.86,6.23h1.78Z"/>
        <path class="cls-3" d="M89.35,316.49h1.98v10.8h3.26v1.8h-5.24v-12.6Z"/>
        <path class="cls-3" d="M98.3,326.17v-6.77c0-1.94,1.01-3.1,2.92-3.1s2.92,1.15,2.92,3.1v1.33h-1.87v-1.46c0-.83-.4-1.17-.99-1.17s-.99.34-.99,1.17v7.04c0,.83.4,1.15.99,1.15s.99-.32.99-1.15v-1.93h1.87v1.78c0,1.94-1.01,3.1-2.92,3.1s-2.92-1.15-2.92-3.1Z"/>
        <path class="cls-3" d="M105.32,316.49h1.98v12.6h-1.98v-12.6Z"/>
        <path class="cls-3" d="M108.63,326.1v-6.63c0-2.02,1.06-3.17,3.01-3.17s3.01,1.15,3.01,3.17v6.63c0,2.02-1.06,3.17-3.01,3.17s-3.01-1.15-3.01-3.17ZM112.66,326.23v-6.88c0-.9-.4-1.24-1.03-1.24s-1.03.34-1.03,1.24v6.88c0,.9.4,1.24,1.03,1.24s1.03-.34,1.03-1.24Z"/>
        <path class="cls-3" d="M115.85,326.17v-6.77c0-1.94,1.01-3.1,2.92-3.1s2.92,1.15,2.92,3.1v1.33h-1.87v-1.46c0-.83-.4-1.17-.99-1.17s-.99.34-.99,1.17v7.04c0,.83.4,1.15.99,1.15s.99-.32.99-1.15v-1.93h1.87v1.78c0,1.94-1.01,3.1-2.92,3.1s-2.92-1.15-2.92-3.1Z"/>
        <path class="cls-3" d="M122.78,326.17v-6.77c0-1.94,1.01-3.1,2.92-3.1s2.92,1.15,2.92,3.1v1.33h-1.87v-1.46c0-.83-.4-1.17-.99-1.17s-.99.34-.99,1.17v7.04c0,.83.4,1.15.99,1.15s.99-.32.99-1.15v-1.93h1.87v1.78c0,1.94-1.01,3.1-2.92,3.1s-2.92-1.15-2.92-3.1Z"/>
        <path class="cls-3" d="M129.69,326.1v-6.63c0-2.02,1.06-3.17,3.01-3.17s3.01,1.15,3.01,3.17v6.63c0,2.02-1.06,3.17-3.01,3.17s-3.01-1.15-3.01-3.17ZM133.72,326.23v-6.88c0-.9-.4-1.24-1.03-1.24s-1.03.34-1.03,1.24v6.88c0,.9.4,1.24,1.03,1.24s1.03-.34,1.03-1.24Z"/>
        <path class="cls-3" d="M137.03,316.49h1.98v10.8h3.26v1.8h-5.24v-12.6Z"/>
        <path class="cls-3" d="M144.83,316.49h2.68l2.05,12.6h-1.98l-.36-2.5v.04h-2.25l-.36,2.47h-1.84l2.05-12.6ZM146.99,324.91l-.88-6.23h-.04l-.86,6.23h1.78Z"/>
        <path class="cls-3" d="M151.23,318.29h-2.07v-1.8h6.12v1.8h-2.07v10.8h-1.98v-10.8Z"/>
        <path class="cls-3" d="M156.02,326.1v-6.63c0-2.02,1.06-3.17,3.01-3.17s3.01,1.15,3.01,3.17v6.63c0,2.02-1.06,3.17-3.01,3.17s-3.01-1.15-3.01-3.17ZM160.06,326.23v-6.88c0-.9-.4-1.24-1.03-1.24s-1.03.34-1.03,1.24v6.88c0,.9.4,1.24,1.03,1.24s1.03-.34,1.03-1.24Z"/>
      </g>
      <text class="cls-14" transform="translate(29.09 342.89)"><tspan x="0" y="0">B</tspan><tspan class="cls-31" x="4.81" y="0">r</tspan><tspan class="cls-5" x="7.85" y="0">ownie </tspan><tspan class="cls-9" x="31.58" y="0">c</tspan><tspan x="35.89" y="0">on ca</tspan><tspan class="cls-31" x="55.56" y="0">r</tspan><tspan x="58.59" y="0">amella al ca</tspan><tspan class="cls-30" x="101.7" y="0">f</tspan><tspan class="cls-31" x="104.79" y="0">f</tspan><tspan x="107.84" y="0">è se</tspan><tspan class="cls-7" x="122.71" y="0">r</tspan><tspan x="125.88" y="0">vi</tspan><tspan class="cls-26" x="132.09" y="0">t</tspan><tspan x="135.21" y="0">o </tspan><tspan class="cls-21" x="141.63" y="0">c</tspan><tspan x="145.94" y="0">on gel</tspan><tspan class="cls-20" x="167.86" y="0">a</tspan><tspan class="cls-23" x="172.21" y="0">t</tspan><tspan class="cls-27" x="175.33" y="0">o alla </tspan><tspan class="cls-25" x="196.38" y="0">v</tspan><tspan x="200.5" y="0">aniglia</tspan></text>
      <text class="cls-1" transform="translate(354.56 336.61)"><tspan x="0" y="0">5</tspan></text>
      <text class="cls-4" transform="translate(29.09 369.23)"><tspan x="0" y="0">ge</tspan><tspan class="cls-38" x="13.57" y="0">l</tspan><tspan class="cls-17" x="19.84" y="0">a</tspan><tspan class="cls-16" x="26.23" y="0">t</tspan><tspan x="32.71" y="0">o al cio</tspan><tspan class="cls-19" x="76.62" y="0">cc</tspan><tspan class="cls-33" x="90.48" y="0">o</tspan><tspan class="cls-38" x="97.68" y="0">l</tspan><tspan class="cls-35" x="103.95" y="0">a</tspan><tspan class="cls-37" x="110.34" y="0">t</tspan><tspan x="116.82" y="0">o</tspan></text>
      <text class="cls-14" transform="translate(29.09 383.03)"><tspan class="cls-15" x="0" y="0">T</tspan><tspan class="cls-31" x="3.71" y="0">r</tspan><tspan x="6.74" y="0">e palline di gel</tspan><tspan class="cls-20" x="58.34" y="0">a</tspan><tspan class="cls-23" x="62.69" y="0">t</tspan><tspan x="65.81" y="0">o al cio</tspan><tspan class="cls-21" x="91.2" y="0">cc</tspan><tspan x="99.81" y="0">ol</tspan><tspan class="cls-30" x="106.2" y="0">a</tspan><tspan class="cls-26" x="110.54" y="0">t</tspan><tspan x="113.66" y="0">o se</tspan><tspan class="cls-38" x="128.55" y="0">r</tspan><tspan x="131.72" y="0">vi</tspan><tspan class="cls-23" x="137.94" y="0">t</tspan><tspan class="cls-27" x="141.06" y="0">o </tspan><tspan class="cls-8" x="147.48" y="0">c</tspan><tspan x="151.78" y="0">on noci e salsa al cio</tspan><tspan class="cls-9" x="226.18" y="0">cc</tspan><tspan x="234.8" y="0">ol</tspan><tspan class="cls-20" x="241.18" y="0">a</tspan><tspan class="cls-23" x="245.53" y="0">t</tspan><tspan x="248.65" y="0">o</tspan></text>
      <text class="cls-1" transform="translate(354.56 376.75)"><tspan x="0" y="0">4</tspan></text>
      <g>
        <path class="cls-3" d="M29.68,406.37v-6.63c0-2.02,1.01-3.17,2.95-3.17s2.95,1.15,2.95,3.17v1.08h-1.87v-1.21c0-.9-.4-1.24-1.03-1.24s-1.03.34-1.03,1.24v6.9c0,.9.4,1.22,1.03,1.22s1.03-.32,1.03-1.22v-2.47h-.99v-1.8h2.86v4.12c0,2.02-1.01,3.17-2.95,3.17s-2.95-1.15-2.95-3.17Z"/>
        <path class="cls-3" d="M36.86,396.76h5.4v1.8h-3.42v3.33h2.72v1.8h-2.72v3.87h3.42v1.8h-5.4v-12.6Z"/>
        <path class="cls-3" d="M43.4,396.76h1.98v10.8h3.26v1.8h-5.24v-12.6Z"/>
        <path class="cls-3" d="M51.19,396.76h2.68l2.05,12.6h-1.98l-.36-2.5v.04h-2.25l-.36,2.47h-1.84l2.05-12.6ZM53.35,405.18l-.88-6.23h-.04l-.86,6.23h1.78Z"/>
        <path class="cls-3" d="M57.6,398.56h-2.07v-1.8h6.12v1.8h-2.07v10.8h-1.98v-10.8Z"/>
        <path class="cls-3" d="M62.39,406.37v-6.63c0-2.02,1.06-3.17,3.01-3.17s3.01,1.15,3.01,3.17v6.63c0,2.02-1.06,3.17-3.01,3.17s-3.01-1.15-3.01-3.17ZM66.42,406.5v-6.88c0-.9-.4-1.24-1.03-1.24s-1.03.34-1.03,1.24v6.88c0,.9.4,1.24,1.03,1.24s1.03-.34,1.03-1.24Z"/>
        <path class="cls-3" d="M74.14,396.76h2.68l2.05,12.6h-1.98l-.36-2.5v.04h-2.25l-.36,2.47h-1.84l2.05-12.6ZM76.3,405.18l-.88-6.23h-.04l-.86,6.23h1.78Z"/>
        <path class="cls-3" d="M79.83,396.76h1.98v10.8h3.26v1.8h-5.24v-12.6Z"/>
        <path class="cls-3" d="M86.02,396.76h1.98v10.8h3.26v1.8h-5.24v-12.6Z"/>
        <path class="cls-3" d="M93.82,396.76h2.68l2.05,12.6h-1.98l-.36-2.5v.04h-2.25l-.36,2.47h-1.84l2.05-12.6ZM95.98,405.18l-.88-6.23h-.04l-.86,6.23h1.78Z"/>
        <path class="cls-3" d="M101.86,396.76h2l1.3,9.78h.04l1.3-9.78h1.82l-1.91,12.6h-2.63l-1.91-12.6Z"/>
        <path class="cls-3" d="M110.29,396.76h2.68l2.05,12.6h-1.98l-.36-2.5v.04h-2.25l-.36,2.47h-1.84l2.05-12.6ZM112.45,405.18l-.88-6.23h-.04l-.86,6.23h1.78Z"/>
        <path class="cls-3" d="M115.97,396.76h2.49l1.93,7.54h.04v-7.54h1.76v12.6h-2.03l-2.38-9.2h-.04v9.2h-1.76v-12.6Z"/>
        <path class="cls-3" d="M123.66,396.76h1.98v12.6h-1.98v-12.6Z"/>
        <path class="cls-3" d="M126.97,406.37v-6.63c0-2.02,1.01-3.17,2.95-3.17s2.95,1.15,2.95,3.17v1.08h-1.87v-1.21c0-.9-.4-1.24-1.03-1.24s-1.03.34-1.03,1.24v6.9c0,.9.4,1.22,1.03,1.22s1.03-.32,1.03-1.22v-2.47h-.99v-1.8h2.86v4.12c0,2.02-1.01,3.17-2.95,3.17s-2.95-1.15-2.95-3.17Z"/>
        <path class="cls-3" d="M134.15,396.76h1.98v10.8h3.26v1.8h-5.24v-12.6Z"/>
        <path class="cls-3" d="M140.34,396.76h1.98v12.6h-1.98v-12.6Z"/>
        <path class="cls-3" d="M145.33,396.76h2.68l2.05,12.6h-1.98l-.36-2.5v.04h-2.25l-.36,2.47h-1.84l2.05-12.6ZM147.49,405.18l-.88-6.23h-.04l-.86,6.23h1.78Z"/>
      </g>
      <text class="cls-14" transform="translate(29.09 423.16)"><tspan class="cls-15" x="0" y="0">T</tspan><tspan class="cls-31" x="3.71" y="0">r</tspan><tspan x="6.74" y="0">e palline di gel</tspan><tspan class="cls-20" x="58.34" y="0">a</tspan><tspan class="cls-23" x="62.69" y="0">t</tspan><tspan x="65.81" y="0">o alla </tspan><tspan class="cls-25" x="86.85" y="0">v</tspan><tspan x="90.98" y="0">aniglia se</tspan><tspan class="cls-38" x="125.17" y="0">r</tspan><tspan class="cls-5" x="128.34" y="0">vi</tspan><tspan class="cls-26" x="134.55" y="0">t</tspan><tspan x="137.67" y="0">o </tspan><tspan class="cls-8" x="144.09" y="0">c</tspan><tspan class="cls-5" x="148.4" y="0">on ca</tspan><tspan class="cls-24" x="168.07" y="0">r</tspan><tspan x="171.1" y="0">amello al ca</tspan><tspan class="cls-30" x="214.27" y="0">f</tspan><tspan class="cls-31" x="217.36" y="0">f</tspan><tspan x="220.41" y="0">è e crumble</tspan></text>
      <text class="cls-1" transform="translate(354.56 416.89)"><tspan x="0" y="0">4</tspan></text>
      <g>
        <path class="cls-3" d="M29.68,446.51v-6.63c0-2.02,1.01-3.17,2.95-3.17s2.95,1.15,2.95,3.17v1.08h-1.87v-1.21c0-.9-.4-1.24-1.03-1.24s-1.03.34-1.03,1.24v6.9c0,.9.4,1.22,1.03,1.22s1.03-.32,1.03-1.22v-2.47h-.99v-1.8h2.86v4.12c0,2.02-1.01,3.17-2.95,3.17s-2.95-1.15-2.95-3.17Z"/>
        <path class="cls-3" d="M36.86,436.89h5.4v1.8h-3.42v3.33h2.72v1.8h-2.72v3.87h3.42v1.8h-5.4v-12.6Z"/>
        <path class="cls-3" d="M43.4,436.89h1.98v10.8h3.26v1.8h-5.24v-12.6Z"/>
        <path class="cls-3" d="M51.19,436.89h2.68l2.05,12.6h-1.98l-.36-2.5v.04h-2.25l-.36,2.47h-1.84l2.05-12.6ZM53.35,445.32l-.88-6.23h-.04l-.86,6.23h1.78Z"/>
        <path class="cls-3" d="M57.6,438.69h-2.07v-1.8h6.12v1.8h-2.07v10.8h-1.98v-10.8Z"/>
        <path class="cls-3" d="M62.39,446.51v-6.63c0-2.02,1.06-3.17,3.01-3.17s3.01,1.15,3.01,3.17v6.63c0,2.02-1.06,3.17-3.01,3.17s-3.01-1.15-3.01-3.17ZM66.42,446.64v-6.88c0-.9-.4-1.24-1.03-1.24s-1.03.34-1.03,1.24v6.88c0,.9.4,1.24,1.03,1.24s1.03-.34,1.03-1.24Z"/>
        <path class="cls-3" d="M74.14,436.89h2.68l2.05,12.6h-1.98l-.36-2.5v.04h-2.25l-.36,2.47h-1.84l2.05-12.6ZM76.3,445.32l-.88-6.23h-.04l-.86,6.23h1.78Z"/>
        <path class="cls-3" d="M79.83,436.89h1.98v10.8h3.26v1.8h-5.24v-12.6Z"/>
        <path class="cls-3" d="M88.9,436.89h1.98v10.8h3.26v1.8h-5.24v-12.6Z"/>
        <path class="cls-3" d="M95.09,436.89h1.98v12.6h-1.98v-12.6Z"/>
        <path class="cls-3" d="M98.55,436.89h2.83l1.26,9.02h.04l1.26-9.02h2.83v12.6h-1.87v-9.54h-.04l-1.44,9.54h-1.66l-1.44-9.54h-.04v9.54h-1.73v-12.6Z"/>
        <path class="cls-3" d="M108.09,446.51v-6.63c0-2.02,1.06-3.17,3.01-3.17s3.01,1.15,3.01,3.17v6.63c0,2.02-1.06,3.17-3.01,3.17s-3.01-1.15-3.01-3.17ZM112.12,446.64v-6.88c0-.9-.4-1.24-1.03-1.24s-1.03.34-1.03,1.24v6.88c0,.9.4,1.24,1.03,1.24s1.03-.34,1.03-1.24Z"/>
        <path class="cls-3" d="M115.43,436.89h2.48l1.93,7.54h.04v-7.54h1.76v12.6h-2.04l-2.38-9.2h-.04v9.2h-1.76v-12.6Z"/>
        <path class="cls-3" d="M123.12,436.89h5.4v1.8h-3.42v3.33h2.72v1.8h-2.72v3.87h3.42v1.8h-5.4v-12.6Z"/>
      </g>
      <text class="cls-14" transform="translate(29.09 463.3)"><tspan class="cls-15" x="0" y="0">T</tspan><tspan class="cls-31" x="3.71" y="0">r</tspan><tspan x="6.74" y="0">e palline di gel</tspan><tspan class="cls-20" x="58.34" y="0">a</tspan><tspan class="cls-23" x="62.69" y="0">t</tspan><tspan x="65.81" y="0">o al limone se</tspan><tspan class="cls-38" x="115.4" y="0">r</tspan><tspan x="118.57" y="0">vi</tspan><tspan class="cls-23" x="124.78" y="0">t</tspan><tspan x="127.9" y="0">o </tspan><tspan class="cls-9" x="134.32" y="0">c</tspan><tspan x="138.63" y="0">on fru</tspan><tspan class="cls-30" x="160.47" y="0">t</tspan><tspan x="163.57" y="0">ta f</tspan><tspan class="cls-31" x="176.19" y="0">r</tspan><tspan x="179.23" y="0">esca</tspan></text>
      <text class="cls-1" transform="translate(354.56 457.02)"><tspan x="0" y="0">4</tspan></text>
      <g>
        <path class="cls-3" d="M29.83,477.03h2.83l1.26,9.02h.04l1.26-9.02h2.83v12.6h-1.87v-9.54h-.04l-1.44,9.54h-1.66l-1.44-9.54h-.04v9.54h-1.73v-12.6Z"/>
        <path class="cls-3" d="M39.37,486.65v-6.63c0-2.02,1.06-3.17,3.01-3.17s3.01,1.15,3.01,3.17v6.63c0,2.02-1.06,3.17-3.01,3.17s-3.01-1.15-3.01-3.17ZM43.4,486.77v-6.88c0-.9-.4-1.24-1.03-1.24s-1.03.34-1.03,1.24v6.88c0,.9.4,1.24,1.03,1.24s1.03-.34,1.03-1.24Z"/>
        <path class="cls-3" d="M46.64,486.65v-9.61h1.98v9.76c0,.9.38,1.22,1.01,1.22s1.01-.32,1.01-1.22v-9.76h1.91v9.61c0,2.02-1.01,3.17-2.95,3.17s-2.95-1.15-2.95-3.17Z"/>
        <path class="cls-3" d="M53.6,486.65v-.72h1.87v.86c0,.9.4,1.22,1.03,1.22s1.03-.32,1.03-1.26c0-1.04-.4-1.71-1.69-2.84-1.66-1.46-2.2-2.48-2.2-3.93,0-1.98,1.03-3.13,2.95-3.13s2.88,1.15,2.88,3.17v.52h-1.87v-.65c0-.9-.36-1.24-.99-1.24s-.99.34-.99,1.21c0,.92.41,1.58,1.71,2.72,1.66,1.46,2.18,2.47,2.18,4.03,0,2.05-1.04,3.21-2.99,3.21s-2.92-1.15-2.92-3.17Z"/>
        <path class="cls-3" d="M60.3,486.65v-.72h1.87v.86c0,.9.4,1.22,1.03,1.22s1.03-.32,1.03-1.26c0-1.04-.4-1.71-1.69-2.84-1.66-1.46-2.2-2.48-2.2-3.93,0-1.98,1.03-3.13,2.95-3.13s2.88,1.15,2.88,3.17v.52h-1.87v-.65c0-.9-.36-1.24-.99-1.24s-.99.34-.99,1.21c0,.92.41,1.58,1.71,2.72,1.66,1.46,2.18,2.47,2.18,4.03,0,2.05-1.04,3.21-2.99,3.21s-2.92-1.15-2.92-3.17Z"/>
        <path class="cls-3" d="M67.34,477.03h5.4v1.8h-3.42v3.33h2.72v1.8h-2.72v3.87h3.42v1.8h-5.4v-12.6Z"/>
      </g>
      <text class="cls-14" transform="translate(29.09 503.43)"><tspan x="0" y="0">Mousse di mango e a</tspan><tspan class="cls-31" x="76.11" y="0">r</tspan><tspan x="79.15" y="0">ancia</tspan></text>
      <text class="cls-1" transform="translate(354.56 497.16)"><tspan x="0" y="0">5</tspan></text>
      <line class="cls-11" x1="168.72" y1="223.24" x2="196.43" y2="223.24"/>
      <g>
        <path class="cls-3" d="M177.16,203.09c1.01.33,1.83.94,2.45,1.83.5.72.84,1.49,1.03,2.32s.27,1.63.27,2.38c0,1.91-.38,3.54-1.15,4.86-1.04,1.79-2.65,2.69-4.83,2.69h-6.21v-14.39h6.21c.89.01,1.64.12,2.23.31ZM171.64,205.27v9.39h2.78c1.42,0,2.41-.7,2.97-2.1.31-.77.46-1.68.46-2.74,0-1.46-.23-2.59-.69-3.37s-1.37-1.18-2.74-1.18h-2.78Z"/>
        <path class="cls-3" d="M194.25,215.89c-1.09,1.12-2.66,1.68-4.72,1.68s-3.63-.56-4.72-1.68c-1.46-1.37-2.19-3.35-2.19-5.94s.73-4.62,2.19-5.94c1.09-1.12,2.66-1.68,4.72-1.68s3.63.56,4.72,1.68c1.45,1.32,2.18,3.3,2.18,5.94s-.73,4.56-2.18,5.94ZM192.37,213.7c.7-.88,1.05-2.13,1.05-3.75s-.35-2.86-1.05-3.75-1.65-1.32-2.84-1.32-2.14.44-2.85,1.32-1.06,2.13-1.06,3.75.35,2.87,1.06,3.75,1.66,1.32,2.85,1.32,2.14-.44,2.84-1.32Z"/>
        <path class="cls-3" d="M198.72,202.77h3.01v11.81h7.19v2.59h-10.2v-14.39Z"/>
        <path class="cls-3" d="M212.31,204.28c1.16-1.18,2.63-1.78,4.42-1.78,2.4,0,4.15.79,5.26,2.38.61.89.94,1.79.99,2.69h-3.01c-.19-.69-.44-1.21-.74-1.56-.54-.62-1.33-.94-2.38-.94s-1.92.44-2.54,1.32c-.62.88-.93,2.13-.93,3.75s.33,2.82.98,3.63c.65.8,1.48,1.21,2.49,1.21s1.82-.34,2.36-1.04c.3-.37.55-.93.75-1.67h2.99c-.26,1.57-.92,2.84-1.98,3.83s-2.42,1.47-4.07,1.47c-2.05,0-3.66-.66-4.83-1.99-1.17-1.33-1.76-3.16-1.76-5.49,0-2.51.67-4.45,2-5.81Z"/>
        <path class="cls-3" d="M228.13,217.17h-2.99v-14.39h2.99v14.39Z"/>
      </g>
      <g>
        <path class="cls-3" d="M158.04,149.7c-.32.15-.76.21-1.2.22v-.58c.82-.02,1.21-.29,1.44-.93h.54v7.01h-.78v-5.72Z"/>
        <path class="cls-3" d="M160.17,155.42h-.28v-1.01h.79v.93l-.49,1.16h-.36l.34-1.08Z"/>
        <path class="cls-3" d="M165.43,149.13h-2.43v-.71h3.2v.69l-1.92,6.31h-.81l1.96-6.29Z"/>
      </g>
      <path class="cls-3" d="M83.67,483.53h-2.43v-.71h3.2v.69l-1.92,6.31h-.81l1.96-6.29Z"/>
      <path class="cls-3" d="M139.45,443.39h-2.43v-.71h3.2v.69l-1.92,6.31h-.81l1.96-6.29Z"/>
      <g>
        <path class="cls-3" d="M159.77,402.75c-.32.15-.76.21-1.2.22v-.58c.82-.02,1.21-.29,1.44-.93h.54v7.01h-.78v-5.72Z"/>
        <path class="cls-3" d="M161.9,408.46h-.28v-1.01h.79v.93l-.49,1.16h-.36l.34-1.08Z"/>
        <path class="cls-3" d="M167.16,402.18h-2.43v-.71h3.2v.69l-1.92,6.31h-.81l1.96-6.29Z"/>
      </g>
      <g>
        <path class="cls-3" d="M160.65,239.15c-.32.15-.76.21-1.2.22v-.58c.82-.02,1.21-.29,1.44-.93h.54v7.01h-.78v-5.72Z"/>
        <path class="cls-3" d="M162.78,244.86h-.28v-1.01h.79v.93l-.49,1.16h-.36l.34-1.08Z"/>
        <path class="cls-3" d="M165.7,243.25v-.53h.74v.56c0,.6.25.97.83.97s.82-.33.82-1.04v-.61c0-.72-.29-1.04-.88-1.04h-.42v-.71h.44c.52,0,.84-.31.84-.95v-.46c0-.64-.29-.97-.8-.97-.55,0-.79.33-.79.94v.41h-.74v-.35c0-1.07.5-1.71,1.56-1.71s1.55.62,1.55,1.7v.28c0,.75-.27,1.24-.82,1.42v.02c.6.19.84.7.84,1.42v.65c0,1.07-.5,1.71-1.58,1.71s-1.59-.68-1.59-1.71Z"/>
        <path class="cls-3" d="M170,244.86h-.28v-1.01h.79v.93l-.49,1.16h-.36l.34-1.08Z"/>
        <path class="cls-3" d="M175.26,238.58h-2.43v-.71h3.2v.69l-1.92,6.31h-.81l1.96-6.29Z"/>
      </g>
      <g>
        <path class="cls-3" d="M151.42,279.28c-.32.15-.76.21-1.2.22v-.58c.82-.02,1.21-.29,1.44-.93h.54v7.01h-.78v-5.72Z"/>
        <path class="cls-3" d="M153.55,285h-.28v-1.01h.79v.93l-.49,1.16h-.36l.34-1.08Z"/>
        <path class="cls-3" d="M156.47,283.39v-.53h.74v.56c0,.6.25.97.83.97s.82-.33.82-1.04v-.61c0-.72-.29-1.04-.88-1.04h-.42v-.71h.44c.52,0,.84-.31.84-.95v-.46c0-.64-.29-.97-.8-.97-.55,0-.79.33-.79.94v.41h-.74v-.35c0-1.07.5-1.71,1.56-1.71s1.55.62,1.55,1.7v.28c0,.75-.27,1.24-.82,1.42v.02c.6.19.84.7.84,1.42v.65c0,1.07-.5,1.71-1.58,1.71s-1.59-.68-1.59-1.71Z"/>
        <path class="cls-3" d="M160.77,285h-.28v-1.01h.79v.93l-.49,1.16h-.36l.34-1.08Z"/>
        <path class="cls-3" d="M166.03,278.71h-2.43v-.71h3.2v.69l-1.92,6.31h-.81l1.96-6.29Z"/>
      </g>
      <g>
        <path class="cls-3" d="M171.74,322.47c-.32.15-.76.21-1.2.22v-.58c.82-.02,1.21-.29,1.44-.93h.54v7.01h-.78v-5.72Z"/>
        <path class="cls-3" d="M173.87,328.19h-.28v-1.01h.79v.93l-.49,1.16h-.36l.34-1.08Z"/>
        <path class="cls-3" d="M176.79,326.58v-.53h.74v.56c0,.6.25.97.83.97s.82-.33.82-1.04v-.61c0-.72-.29-1.04-.88-1.04h-.42v-.71h.44c.52,0,.84-.31.84-.95v-.46c0-.64-.29-.97-.8-.97-.55,0-.79.33-.79.94v.41h-.74v-.35c0-1.07.5-1.71,1.56-1.71s1.55.62,1.55,1.7v.28c0,.75-.27,1.24-.82,1.42v.02c.6.19.84.7.84,1.42v.65c0,1.07-.5,1.71-1.58,1.71s-1.59-.68-1.59-1.71Z"/>
        <path class="cls-3" d="M181.09,328.19h-.28v-1.01h.79v.93l-.49,1.16h-.36l.34-1.08Z"/>
        <path class="cls-3" d="M186.35,321.9h-2.43v-.71h3.2v.69l-1.92,6.31h-.81l1.96-6.29Z"/>
      </g>
      <path class="cls-3" d="M138.71,55.12c-.32.15-.76.21-1.2.22v-.58c.82-.02,1.21-.29,1.44-.93h.54v7.01h-.78v-5.72Z"/>
      <path class="cls-3" d="M122.26,95.25c-.32.15-.76.21-1.2.22v-.58c.82-.02,1.21-.29,1.44-.93h.54v7.01h-.78v-5.72Z"/>
    </g>
  </g>
</svg>