<?xml version="1.0" encoding="UTF-8"?>
<svg id="Layer_1" data-name="Layer 1" xmlns="http://www.w3.org/2000/svg" width="1000" height="1000" viewBox="0 0 1000 1000">
  <defs>
    <style>
      .cls-1 {
        fill: #fff;
      }

      .cls-2 {
        fill: #f7931e;
      }
    </style>
  </defs>
  <path class="cls-2" d="M499.9995,0h.001C775.95774,0,1000,224.04226,1000,499.9995v.001c0,275.95724-224.04226,499.9995-499.9995,499.9995h-.001C224.04226,1000,0,775.95774,0,500.0005v-.001C0,224.04226,224.04226,0,499.9995,0Z"/>
  <g>
    <path class="cls-1" d="M504.41372,719.21682c-12.67043,0-22.99543-6.96803-30.97267-20.90409-7.97724-13.93841-11.96704-33.06167-11.96704-57.36743,0-22.96956,3.77337-41.75642,11.32011-56.36528,7.54909-14.60651,18.08582-21.91094,31.6196-21.91094,13.13857,0,23.59767,7.28796,31.382,21.85448,7.78198,14.57122,11.67533,33.3769,11.67533,56.42174,0,24.52925-4.10742,43.70897-12.31991,57.53211-8.21249,13.82784-18.45986,20.73941-30.73743,20.73941ZM504.17847,580.95721c-6.80571,0-12.0235,5.32365-15.66042,15.97095-3.63692,10.6473-5.45774,25.31968-5.45774,44.01714,0,19.36557,1.87727,34.20497,5.63182,44.51822,3.75455,10.31325,9.07114,15.46987,15.95448,15.46987,6.57281,0,11.75296-5.26954,15.54515-15.80392,3.79219-10.53438,5.69063-25.26557,5.69063-44.18417,0-19.21736-1.91727-34.01913-5.74709-44.4053-3.83453-10.38853-9.15112-15.58279-15.95683-15.58279Z"/>
    <path class="cls-1" d="M565.94276,719.11768v-156.543h17.21635l36.48244,96.78915.48045-.21004v-96.57911h19.50752v156.543h-17.21876l-36.48002-97.47481-.48286-.02173v97.49654h-19.5051Z"/>
    <path class="cls-1" d="M658.10122,719.11768v-156.543h21.1927v137.77425h40.69538v18.76874h-61.88808Z"/>
    <path class="cls-1" d="M738.46101,719.11768v-156.543h21.1927v156.543h-21.1927Z"/>
    <path class="cls-1" d="M778.12542,719.11768v-156.543h17.21635l36.48244,96.78915.48045-.21004v-96.57911h19.50752v156.543h-17.21876l-36.48002-97.47481-.48286-.02173v97.49654h-19.5051Z"/>
    <path class="cls-1" d="M870.28388,719.11768v-156.543h58.63844v18.76633h-37.44574v46.80114h34.3144v18.76874h-34.3144v53.43804h39.49306v18.76874h-60.68576Z"/>
    <path class="cls-1" d="M95.61092,376.09682c0,4.73926,1.62965,9.54854,4.88895,14.42904,3.25689,4.8805,11.59345,12.1089,25.0097,21.67918,25.91265,18.29554,43.14107,33.05776,51.68285,44.29027,8.54178,11.23372,12.81267,23.20018,12.81267,35.90059,0,18.01065-6.9749,32.01357-20.92954,42.01359-13.95222,10.00002-29.23472,15.00244-45.84267,15.00244-11.77211,0-23.84842-2.4481-36.23618-7.33463-12.38776-4.88654-18.57801-10.03623-18.57801-15.44667,0-1.32786.14003-3.81942.42492-7.47466.28489-3.65283.42733-8.23275.42733-13.73976,0-1.89764-.16659-4.19967-.49976-6.90489s-.49735-4.48456-.49735-5.33922c0-3.51039,2.06664-5.268,6.20474-5.268,4.60165,0,7.18495,3.5128,7.74989,10.53599,1.13955,11.58017,5.2173,20.59757,12.2429,27.05099,7.02319,6.45583,16.7528,9.68133,29.18643,9.68133,12.5302,0,22.89719-3.5297,31.11063-10.59152,8.20861-7.06182,12.31291-16.27719,12.31291-27.64973,0-6.8228-2.76678-14.07294-8.30518-21.74919-5.5384-7.67505-20.04349-19.85518-43.5177-36.53555-9.68133-6.83367-17.29844-12.64609-22.85132-17.44088-5.55288-4.79117-10.20282-10.46477-13.95222-17.01355-3.75182-6.54999-5.6229-14.00171-5.6229-22.35518,0-13.57197,6.14197-24.82018,18.43557-33.74342,12.29118-8.92324,26.45828-13.38486,42.50128-13.38486,9.11156,0,18.8629,2.25495,29.25645,6.76244,10.39355,4.5087,15.59153,9.80204,15.59153,15.87521,0,.85345-.0507,2.20667-.14486,4.05723-.09416,1.85056-.14003,4.58113-.14003,8.18688,0,.95003.18832,2.80058.56977,5.55288,0,6.26389-2.16321,9.39644-6.47756,9.39644-1.53308,0-3.04926-.73153-4.53405-2.19822-1.48721-1.46306-2.23081-3.04805-2.23081-4.75134,0-9.26366-3.14341-16.37738-9.43024-21.34118-6.28683-4.96259-13.96671-7.44569-23.04205-7.44569-10.30422,0-19.14296,2.84283-26.51622,8.52971-7.37326,5.68567-11.05989,11.94111-11.05989,18.76391Z"/>
    <path class="cls-1" d="M227.90713,368.68251c0-5.4877-1.06953-9.25038-3.20619-11.28322-2.13424-2.03284-4.88654-3.54781-8.25689-4.5425-3.37036-.99228-5.69291-1.97127-6.97732-2.93216-1.27958-.96089-1.92178-2.68953-1.92178-5.18832,0-1.44134.63979-2.64245,1.91937-3.60334,1.27716-.96089,2.7692-1.44134,4.47369-1.44134,2.93578,0,7.38775.47562,13.35347,1.42323,5.96573.95003,10.51426,1.42444,13.63836,1.42444,2.84163,0,7.03285-.42733,12.57366-1.28199,5.54081-.85466,9.68616-1.28078,12.43363-1.28078,4.73202,0,7.10286,1.96886,7.10286,5.90537,0,2.40343-.61806,4.0355-1.85177,4.89861-1.23371.86553-3.7494,1.65379-7.54468,2.3636-3.8001.7086-6.5524,2.69556-8.25931,5.95969-1.70691,3.26534-2.56157,8.01909-2.56157,14.26366v147.32883c0,2.74264.63979,5.18108,1.92178,7.31049,1.27958,2.127,4.12845,3.78079,8.54178,4.96621,4.41333,1.18301,7.0932,2.42154,8.04444,3.72043.9464,1.29406,1.42444,2.81024,1.42444,4.53888,0,3.45727-2.93578,5.18832-8.80735,5.18832-2.65573,0-6.53792-.45147-11.65381-1.35442-5.11348-.90295-8.99567-1.35201-11.64898-1.35201-2.46258,0-6.22406.35732-11.29408,1.06953-5.06519.71222-8.87737,1.06712-11.43411,1.06712-7.10528,0-10.65671-2.25737-10.65671-6.77693,0-1.24578.37904-2.35152,1.13955-3.31242.75809-.96089,3.44037-1.84452,8.04444-2.64848,4.60165-.80396,7.66298-2.83921,9.18398-6.10576,1.51618-3.26171,2.2791-6.92903,2.2791-10.99712v-147.32763Z"/>
    <path class="cls-1" d="M473.32527,501.00287c2.2305-.00021,5.33317,2.07278,5.33317,4.55578,0,3.32208-3.82197,8.61421-11.46071,15.87642-7.64371,7.25979-17.63403,13.4766-29.97098,18.64801-12.33965,5.17383-25.39116,7.75955-39.15272,7.75955-22.2116,0-41.5043-4.83825-57.87787-14.51958-16.37132-9.68133-28.92338-23.15793-37.65821-40.43584-8.73257-17.27429-13.09525-35.21373-13.09525-53.81829,0-18.60215,4.26843-36.04303,12.81024-52.32264,8.54429-16.27719,20.69296-28.97277,36.45119-38.08553,15.75327-9.11156,34.027-13.66733,54.81421-13.66733,13.28827,0,25.55531,1.73226,36.80339,5.19557,11.24583,3.46693,20.12068,7.6666,26.62501,12.60142,6.49915,4.93603,9.75131,8.68423,9.75131,11.247,0,3.98601-.09425,7.59538-.28253,10.82088-.19324,3.22791-.28501,5.17384-.28501,5.83656,0,1.13955.32853,2.87301.99484,5.19678.66157,2.32738.99709,4.48576.99709,6.47876,0,3.13255-1.94841,4.69823-5.8378,4.69823-1.23363,0-2.46973-.56977-3.70111-1.71295-1.23611-1.14076-3.03953-4.33124-5.41051-9.56785-5.0362-11.13715-10.45392-19.22987-16.25046-24.27575-10.1644-8.85081-24.36994-13.27863-42.61256-13.27863-23.47161,0-41.73835,8.53454-54.80452,25.59637-13.06616,17.06304-19.59665,39.09349-19.59665,66.09137,0,29.37353,7.07143,52.59425,21.21428,69.6573,14.14308,17.06181,33.22067,25.59396,57.23344,25.59396,6.17084,0,15.87638-2.07147,29.11639-6.21681,13.24227-4.14776,26.31587-12.17773,39.2251-24.09348,2.87944-2.57065,5.09077-3.85868,6.62722-3.85926Z"/>
    <path class="cls-1" d="M643.55728,365.04538c0-8.83391-5.36457-13.25207-16.08887-13.25207-5.41044,0-8.11687-2.20425-8.11687-6.61879,0-4.22381,3.45727-6.33753,10.37182-6.33753,2.1777,0,5.3018.38025,9.3723,1.13955,4.0705.7605,7.15115,1.13834,9.23468,1.13834,2.83921,0,6.91213-.42733,12.21634-1.28078,5.30421-.85466,9.28056-1.28199,11.93387-1.28199,1.98455,0,3.85322.56495,5.606,1.69121,1.75278,1.12506,2.63158,2.48673,2.63158,4.08016,0,2.72212-.76292,4.50387-2.2791,5.35008-1.52101.845-4.62579,1.57412-9.32643,2.19097-4.69822.61806-7.82956,2.46862-9.39644,5.55288-1.56688,3.08547-2.34911,6.57292-2.34911,10.46477v116.03593c0,14.33247-1.59102,25.17749-4.77065,32.53385-3.17963,7.35395-8.37761,13.78563-15.58911,19.29023-7.21392,5.5046-15.56738,9.56061-25.05799,12.17288-9.49301,2.60985-19.84069,3.91599-31.0382,3.91599-20.12316,0-36.80354-4.92999-50.04354-14.78515-13.24242-9.85757-19.86242-23.36556-19.86242-40.52156v-133.3573c0-2.74868-.73636-5.04709-2.20667-6.89523-1.47272-1.84694-4.62821-3.05529-9.46646-3.62386-4.84308-.56977-7.81025-1.40633-8.8991-2.50966-1.09368-1.10333-1.63689-2.52053-1.63689-4.25158,0-1.91695.84983-3.47659,2.55433-4.6777,1.70449-1.20232,3.64559-1.80227,5.82811-1.80227,2.74264,0,6.67312.42733,11.79142,1.28078,5.11348.85466,8.95221,1.28199,11.51137,1.28199,3.02753,0,7.45776-.47441,13.28105-1.42444,5.8257-.94761,10.25352-1.42323,13.28587-1.42323,3.22067,0,5.87157.57581,7.95752,1.72864,2.08112,1.15162,3.1241,2.82956,3.1241,5.03622,0,1.824-.49735,3.33535-1.49204,4.53405-.99952,1.20111-3.58523,1.96644-7.75955,2.29841-4.17915.33317-7.38292,1.30493-9.61132,2.91647-2.23322,1.61275-3.34622,5.12072-3.34622,10.52633v129.60427c0,12.80543,4.52198,22.95513,13.5611,30.44428,9.04154,7.49398,20.60361,11.24097,34.68861,11.24097,8.85081,0,17.55918-1.44858,26.12269-4.34573,8.56592-2.89716,15.91987-7.26703,22.05701-13.10963,6.13714-5.8426,9.58959-13.60577,10.35009-23.29555.56977-2.46983.85708-8.16877.85708-17.09926v-114.55596Z"/>
    <path class="cls-1" d="M715.34397,362.77352c0-7.22358-4.90827-11.12025-14.72238-11.69244-6.79866-.37301-10.19316-2.58088-10.19316-6.61759,0-4.22502,3.8846-6.33874,11.66105-6.33874,3.6987,0,7.77404.33438,12.23083.9971,4.45679.66514,8.24965.9971,11.38099.9971,2.08354,0,7.86819-.66393,17.35155-1.99421,9.48094-1.32786,16.78178-1.993,21.90491-1.993,19.53166,0,35.38876,5.03864,47.57372,15.1147,12.18496,10.07486,18.27864,23.14466,18.27864,39.20576,0,10.2668-3.01304,18.75184-9.04396,25.45272-6.02608,6.69967-16.39549,12.902-31.1058,18.60457-2.75471,1.04539-4.12845,2.13907-4.12845,3.27861,0,.7605.56977,1.993,1.71174,3.70112,5.22937,7.40465,15.07245,23.42109,29.52926,48.05175,14.45681,24.63186,22.15841,37.49523,23.10965,38.58408.95123,1.09368,3.47176,2.32738,7.56158,3.70112,4.08982,1.37615,6.67794,2.74747,7.77404,4.10913,1.09609,1.36408,1.64172,2.89233,1.64172,4.58234,0,2.16321-1.42444,4.01739-4.27813,5.5722-2.84887,1.54756-5.13279,2.32255-6.84212,2.32255-4.36988,0-9.69099-1.68276-15.96816-5.04588-6.27234-3.36553-10.40562-6.2313-12.39983-8.60455-3.70595-4.73685-15.8233-24.07537-36.35448-58.01434-9.59924-15.83054-15.10867-24.74171-16.53552-26.73351-5.13279-7.39378-10.16902-12.13305-15.11108-14.219-1.23612-.48045-2.04249-.98383-2.42395-1.51256-.38146-.52994-.56977-1.65983-.56977-3.39088,0-4.13328,2.46017-6.20233,7.38292-6.20233.4732,0,1.79865.16659,3.97635.49855,2.1777.33317,4.30952.49855,6.39064.49855,10.41528,0,19.12364-3.37519,26.12752-10.12677,7.00629-6.74917,10.51185-16.16372,10.51185-28.24365,0-8.55868-3.94013-17.07028-11.8204-25.53239-7.87785-8.46211-18.79289-12.69558-32.74511-12.69558-5.22212,0-9.04154.59392-11.46067,1.78175s-3.94013,2.66297-4.55578,4.42058c-.62047,1.76002-.92468,4.06447-.92468,6.91575v159.71176c0,3.13376,1.35683,5.67843,4.08016,7.62676,2.7185,1.94834,6.27234,2.92371,10.66153,2.92371,4.77065,0,7.96718.61082,9.58959,1.83245,1.62241,1.22405,2.43361,3.01063,2.43361,5.35732,0,2.25978-1.01883,4.1381-3.0565,5.64463-2.03767,1.50169-5.09175,2.25495-9.16467,2.25495-3.69387,0-8.22068-1.06712-13.57318-3.20136-5.3525-2.13424-9.592-3.20377-12.71851-3.20377-2.6509,0-6.62966,1.02125-11.93628,3.06133-5.30662,2.04008-9.4737,3.06133-12.50606,3.06133-8.71561,0-13.071-2.72574-13.071-8.17722,0-2.06664.70497-3.59247,2.11975-4.57751,1.41478-.98986,4.95414-1.48238,10.61808-1.48238,3.3945,0,6.17819-.75809,8.34864-2.28151,2.17287-1.52101,3.2593-3.37277,3.2593-5.56495v-162.41819Z"/>
    <path class="cls-1" d="M889.49685,368.68251c0-5.4877-1.06712-9.25038-3.20619-11.28322-2.13424-2.03284-4.88654-3.54781-8.25689-4.5425-3.37036-.99228-5.69291-1.97127-6.97732-2.93216-1.27958-.96089-1.92178-2.68953-1.92178-5.18832,0-1.44134.63737-2.64245,1.91695-3.60334,1.27958-.96089,2.77161-1.44134,4.47611-1.44134,2.93578,0,7.38775.47562,13.35589,1.42323,5.96331.95003,10.51185,1.42444,13.63595,1.42444,2.84404,0,7.03526-.42733,12.57366-1.28199,5.5384-.85466,9.68616-1.28078,12.43363-1.28078,4.73202,0,7.10286,1.96886,7.10286,5.90537,0,2.40343-.61806,4.0355-1.85418,4.89861-1.23129.86553-3.74699,1.65379-7.54226,2.3636-3.8001.7086-6.5524,2.69556-8.25689,5.95969-1.70932,3.26534-2.56398,8.01909-2.56398,14.26366v147.32883c0,2.74264.63737,5.18108,1.92178,7.31049,1.27958,2.127,4.12845,3.78079,8.54178,4.96621,4.41333,1.18301,7.0932,2.42154,8.04444,3.72043.9464,1.29406,1.42444,2.81024,1.42444,4.53888,0,3.45727-2.93578,5.18832-8.80735,5.18832-2.65573,0-6.53792-.45147-11.6514-1.35442-5.11831-.90295-9.0005-1.35201-11.6514-1.35201-2.46258,0-6.22406.35732-11.29408,1.06953-5.06519.71222-8.87495,1.06712-11.43411,1.06712-7.10286,0-10.65671-2.25737-10.65671-6.77693,0-1.24578.38146-2.35152,1.13955-3.31242.75809-.96089,3.43796-1.84452,8.04444-2.64848,4.60165-.80396,7.66298-2.83921,9.18398-6.10576,1.51618-3.26171,2.2791-6.92903,2.2791-10.99712v-147.32763Z"/>
    <g id="Password_protection_icon_simple_vector._Personal_mobile._App_change" data-name="Password protection icon simple vector. Personal mobile. App change">
      <path class="cls-1" d="M385.46364,663.43079h-147.53608c-12.28444,0-22.26523-10.08103-22.26523-22.48807,0-12.40639,9.98079-22.48685,22.26523-22.48685h147.53608c12.28443,0,22.26523,10.08046,22.26523,22.48685,0,12.40703-9.9808,22.48807-22.26523,22.48807h0ZM387.12688,610.184h-185.92324c5.11761,9.0474,8.1889,19.51492,8.1889,30.75872s-3.07128,21.71247-8.1889,30.76009h185.92324c16.76378,0,30.45482-13.82911,30.45482-30.76009,0-16.93004-13.69104-30.75872-30.45482-30.75872h0Z"/>
      <path class="cls-1" d="M148.86783,687.85724c-25.59181,0-46.44888-21.06604-46.44888-46.91451s20.85707-46.91396,46.44888-46.91396c25.71989,0,46.4491,21.06597,46.4491,46.91396s-20.72921,46.91451-46.4491,46.91451h0ZM148.86783,583.68931c-31.22228,0-56.55798,25.71919-56.55798,57.25342s25.33569,57.25386,56.55798,57.25386c31.34998,0,56.68578-25.7189,56.68578-57.25386s-25.33581-57.25342-56.68578-57.25342h0Z"/>
      <path class="cls-1" d="M138.75873,622.07457c0-2.71435,1.15184-5.29928,3.07137-7.10857,1.79146-1.81009,4.35055-2.97261,7.03773-2.97261,2.81533,0,5.24628,1.16253,7.1658,2.97261,1.79146,1.80929,2.94329,4.39422,2.94329,7.10857v7.88335h9.59689v-7.88335c0-5.42872-2.17571-10.33952-5.75848-13.95815-3.58297-3.61868-8.44578-5.81649-13.94751-5.81649-5.37436,0-10.36447,2.19782-13.81936,5.81649-3.58291,3.61863-5.88584,8.52943-5.88584,13.95815v7.88335h9.59609v-7.88335h0Z"/>
      <path class="cls-1" d="M151.55501,653.86708v6.97887c0,1.03439-.89572,1.80925-1.79145,1.80925h-1.66336c-1.02382,0-1.79146-.77486-1.79146-1.80925v-6.97887c-1.79146-.90433-3.07063-2.84317-3.07063-5.04028,0-3.10214,2.55837-5.68626,5.62973-5.68626,3.19872,0,5.63046,2.58411,5.63046,5.68626,0,2.19711-1.15183,4.13596-2.94329,5.04028h0ZM170.36498,633.83488h-42.99451c-4.09444,0-7.42126,3.36034-7.42126,7.49557v23.13397c0,4.13602,3.32681,7.49643,7.42126,7.49643h42.99451c4.09481,0,7.5492-3.36041,7.5492-7.49643v-23.13397c0-4.13523-3.45439-7.49557-7.5492-7.49557h0Z"/>
      <polygon class="cls-1" points="387.12688 634.73987 379.57766 637.19522 379.45047 629.31186 373.81962 629.31186 373.69168 637.19522 366.14251 634.73987 364.35059 640.1672 371.90054 642.88155 367.54982 649.60232 371.90054 652.57494 376.63505 646.50018 381.2409 652.57494 385.72025 649.60232 381.2409 642.88155 388.91948 640.1672 387.12688 634.73987 387.12688 634.73987"/>
      <polygon class="cls-1" points="257.24942 634.73987 249.69879 637.19522 249.69879 629.31186 243.94148 629.31186 243.81353 637.19522 236.26361 634.73987 234.60038 640.1672 242.14958 642.88155 237.67095 649.60232 242.14958 652.57494 246.75616 646.50018 251.49139 652.57494 255.84209 649.60232 251.49139 642.88155 259.04059 640.1672 257.24942 634.73987 257.24942 634.73987"/>
      <polygon class="cls-1" points="354.62641 634.73987 347.07653 637.19522 347.07653 629.31186 341.31847 629.31186 341.19055 637.19522 333.64135 634.73987 331.97667 640.1672 339.5266 642.88155 335.17661 649.60232 339.5266 652.57494 344.13387 646.50018 348.86769 652.57494 353.21837 649.60232 348.86769 642.88155 356.41687 640.1672 354.62641 634.73987 354.62641 634.73987"/>
      <polygon class="cls-1" points="322.25176 634.73987 314.5746 637.19522 314.5746 629.31186 308.81658 629.31186 308.81658 637.19522 301.13874 634.73987 299.47552 640.1672 307.02472 642.88155 302.67401 649.60232 307.02472 652.57494 311.7592 646.50018 316.36651 652.57494 320.71648 649.60232 316.36651 642.88155 323.91571 640.1672 322.25176 634.73987 322.25176 634.73987"/>
      <polygon class="cls-1" points="289.7506 634.73987 282.20068 637.19522 282.07346 629.31186 276.44264 629.31186 276.31471 637.19522 268.7655 634.73987 266.97434 640.1672 274.52354 642.88155 270.17284 649.60232 274.52354 652.57494 279.25806 646.50018 283.86462 652.57494 288.34327 649.60232 283.86462 642.88155 291.54174 640.1672 289.7506 634.73987 289.7506 634.73987"/>
    </g>
    <g>
      <path class="cls-1" d="M232.47723,294.50483c0-2.04725.86876-3.9969,2.31653-5.36153,1.35118-1.36523,3.28133-2.24205,5.3081-2.24205,2.12342,0,3.95693.87682,5.40469,2.24205,1.35118,1.36463,2.21993,3.31427,2.21993,5.36153v5.94589h7.23831v-5.94589c0-4.09453-1.641-7.79842-4.34324-10.52771-2.7024-2.72933-6.3701-4.387-10.51969-4.387-4.05352,0-7.81724,1.65767-10.42303,4.387-2.70235,2.7293-4.4393,6.43319-4.4393,10.52771v5.94589h7.2377v-5.94589h0Z"/>
      <path class="cls-1" d="M242.12862,318.48383v5.2637c0,.78017-.67559,1.3646-1.35117,1.3646h-1.25457c-.7722,0-1.35118-.58443-1.35118-1.3646v-5.2637c-1.35118-.68207-2.31598-2.14442-2.31598-3.80156,0-2.33974,1.92961-4.28877,4.24614-4.28877,2.41258,0,4.24669,1.94903,4.24669,4.28877,0,1.65714-.86875,3.11948-2.21993,3.80156h0ZM256.31575,303.37486h-32.42793c-3.08817,0-5.59737,2.53449-5.59737,5.65342v17.44843c0,3.11953,2.5092,5.65407,5.59737,5.65407h32.42793c3.08844,0,5.69386-2.53454,5.69386-5.65407v-17.44843c0-3.11893-2.60542-5.65342-5.69386-5.65342h0Z"/>
    </g>
    <g>
      <path class="cls-1" d="M895.0375,294.50483c0-2.04725.86876-3.9969,2.31653-5.36153,1.35118-1.36523,3.28133-2.24205,5.3081-2.24205,2.12342,0,3.95693.87682,5.40469,2.24205,1.35118,1.36463,2.21993,3.31427,2.21993,5.36153v5.94589h7.23831v-5.94589c0-4.09453-1.641-7.79842-4.34324-10.52771-2.7024-2.72933-6.3701-4.387-10.51969-4.387-4.05352,0-7.81724,1.65767-10.42303,4.387-2.70235,2.7293-4.4393,6.43319-4.4393,10.52771v5.94589h7.2377v-5.94589h0Z"/>
      <path class="cls-1" d="M904.68889,318.48383v5.2637c0,.78017-.67559,1.3646-1.35117,1.3646h-1.25457c-.7722,0-1.35118-.58443-1.35118-1.3646v-5.2637c-1.35118-.68207-2.31598-2.14442-2.31598-3.80156,0-2.33974,1.92961-4.28877,4.24614-4.28877,2.41258,0,4.24669,1.94903,4.24669,4.28877,0,1.65714-.86875,3.11948-2.21993,3.80156h0ZM918.87601,303.37486h-32.42793c-3.08817,0-5.59737,2.53449-5.59737,5.65342v17.44843c0,3.11953,2.5092,5.65407,5.59737,5.65407h32.42793c3.08844,0,5.69386-2.53454,5.69386-5.65407v-17.44843c0-3.11893-2.60542-5.65342-5.69386-5.65342h0Z"/>
    </g>
    <path class="cls-1" d="M369.14085,719.44864h-228.39018c-42.95957,0-77.91017-34.95209-77.91017-77.91167v-1.18807c0-42.95957,34.95059-77.91167,77.91017-77.91167h228.39018c42.95957,0,77.91167,34.95209,77.91167,77.91167v1.18807c0,42.95957-34.95209,77.91167-77.91167,77.91167ZM140.75068,573.5199c-36.84821,0-66.8275,29.9808-66.8275,66.829v1.18807c0,36.84821,29.9793,66.829,66.8275,66.829h228.39018c36.84821,0,66.829-29.9808,66.829-66.829v-1.18807c0-36.84821-29.9808-66.829-66.829-66.829h-228.39018Z"/>
  </g>
</svg>