<?xml version="1.0" encoding="UTF-8"?><svg id="a" xmlns="http://www.w3.org/2000/svg" viewBox="0 0 1000 1000"><defs><style>.b{fill:#fff;}.c{fill:#c74d0c;}</style></defs><path class="c" d="M500,0h0C775.958,0,1000,224.042,1000,500h0c0,275.958-224.042,500.001-500,500.001h-.001C224.042,1000,0,775.958,0,500.001H0C0,224.042,224.042,0,500,0Z"/><path class="b" d="M848.937,404.623c-15.225,1.243,36.766,28.059-6.289,61.439-59.388,46.042-158.14-111.189-266.044-91.316-35.4,6.519-59.772,26.208-76.604,49.609-16.832-23.401-41.204-43.09-76.604-49.609-107.902-19.874-206.656,137.357-266.044,91.316-43.055-33.38,8.935-60.196-6.289-61.439-59.264-4.838-107.625,119.551,12.095,186.253,101.592,56.601,204.73,37.481,261.902,5.127,21.089-11.934,49.02-28.406,74.94-42.568,25.92,14.161,53.851,30.633,74.94,42.568,57.174,32.354,160.31,51.474,261.902-5.127,119.721-66.701,71.358-191.091,12.095-186.253Z"/></svg>