<?xml version="1.0" encoding="UTF-8"?><svg id="a" xmlns="http://www.w3.org/2000/svg" viewBox="0 0 1000 1000"><defs><style>.b{fill:#c74d0c;}</style></defs><path class="b" d="M660.43,383.554c-6.302.515,15.218,11.614-2.603,25.431-24.581,19.057-65.456-46.023-110.119-37.797-14.653,2.698-24.74,10.848-31.707,20.534-6.967-9.686-17.055-17.836-31.707-20.534-44.662-8.226-85.538,56.854-110.119,37.797-17.821-13.817,3.699-24.916-2.603-25.431-24.53-2.003-44.547,49.484,5.006,77.092,42.05,23.428,84.74,15.514,108.405,2.122,8.729-4.94,20.29-11.758,31.019-17.619,10.729,5.862,22.29,12.679,31.019,17.619,23.665,13.392,66.354,21.306,108.405-2.122,49.554-27.609,29.536-79.095,5.006-77.092Z"/><path class="b" d="M119.073,525.656c18.745,0,31.195,11.161,31.195,27.902,0,10.302-5.009,17.887-12.736,20.176,9.014,2.289,14.881,10.875,14.881,22.751,0,16.742-12.448,27.903-31.051,27.903h-45.359c-1.145,0-2.003-1.002-2.003-2.003v-94.583c0-1.001.859-2.146,2.003-2.146h43.07ZM112.492,564.433c4.292,0,7.153-2.574,7.153-6.581s-2.862-6.583-7.153-6.583h-9.015v13.164h9.015ZM115.066,598.774c4.15,0,7.012-2.718,7.012-6.868s-2.862-6.868-7.012-6.868h-11.59v13.737h11.59Z"/><path class="b" d="M165.576,554.56c-.429-1.002-.143-2.003.716-2.719,8.157-5.151,19.604-8.156,31.051-8.156,24.754,0,36.201,13.022,36.201,41.496v37.06c0,1.145-1.002,2.147-2.147,2.147h-18.028c-1.145,0-2.289-1.002-2.289-2.147l-1.002-3.863c-4.721,5.008-14.167,8.157-24.611,8.157-16.456,0-27.331-10.59-27.187-26.329.144-14.024,11.019-23.324,27.187-23.324,8.299,0,15.74,3.004,18.602,7.583v-6.009c0-6.153-4.435-10.16-11.019-10.16-5.58,0-12.448,1.86-17.171,4.579-.715.43-1.573-.143-2.146-1.145l-8.157-17.171ZM204.068,598.632c-2.433-2.432-4.865-3.577-7.869-3.577-3.578,0-6.011,2.002-6.011,5.151s2.433,5.151,6.011,5.151c3.004,0,5.436-1.145,7.869-3.578v-3.148Z"/><path class="b" d="M289.204,545.688c1.145,0,2.004.859,2.004,2.003v18.602c0,1.145-.86,2.003-2.004,2.003h-3.719c-5.439,0-10.302,2.432-12.163,6.01v47.935c0,1.145-1.001,2.147-2.146,2.147h-25.184c-1.145,0-2.147-1.002-2.147-2.147v-74.407c0-1.001,1.002-2.002,2.147-2.002h16.169c1.145,0,1.86,1.001,2.289,2.146l2.147,6.296c4.292-5.295,11.304-8.585,18.888-8.585h3.719Z"/><path class="b" d="M402.101,563.86c1.145,0,2.146,1.002,2.146,2.004v45.501c0,1.288-.716,2.577-1.717,3.434-8.585,7.298-21.75,11.591-35.486,11.591-30.907,0-51.512-20.605-51.512-51.512s20.605-51.512,51.512-51.512c10.589,0,21.75,3.148,30.049,8.299,1.145.572,1.575,1.717,1.287,2.576l-7.153,21.034c-.43,1.002-1.432,1.432-2.719,1.145-5.866-3.147-13.45-5.008-20.605-5.008-13.164,0-22.036,9.444-22.036,23.467,0,14.309,8.872,23.753,22.036,23.753,5.294,0,8.872-1.002,10.445-2.719v-8.298h-13.164c-1.287,0-2.146-.572-2.289-1.575l-1.86-19.746c-.143-1.431.715-2.433,2.289-2.433h38.778ZM379.207,593.767v.572-.572Z"/><path class="b" d="M444.312,538.515c0,8.443-6.296,14.167-15.74,14.167s-15.74-5.724-15.74-14.167c0-8.87,6.296-14.738,15.74-14.738s15.74,5.867,15.74,14.738ZM441.307,555.257c1.145,0,2.147,1.001,2.147,2.003v64.98c0,1.145-1.002,2.147-2.147,2.147h-25.184c-1.145,0-2.146-1.002-2.146-2.147v-64.98c0-1.002,1.001-2.003,2.146-2.003h25.184Z"/><path class="b" d="M458.765,554.56c-.43-1.002-.144-2.003.715-2.719,8.156-5.151,19.603-8.156,31.05-8.156,24.755,0,36.202,13.022,36.202,41.496v37.06c0,1.145-1.001,2.147-2.146,2.147h-18.031c-1.145,0-2.289-1.002-2.289-2.147l-1.001-3.863c-4.723,5.008-14.165,8.157-24.611,8.157-16.455,0-27.33-10.59-27.187-26.329.143-14.024,11.017-23.324,27.187-23.324,8.299,0,15.74,3.004,18.602,7.583v-6.009c0-6.153-4.436-10.16-11.017-10.16-5.581,0-12.449,1.86-17.171,4.579-.716.43-1.575-.143-2.147-1.145l-8.156-17.171ZM497.256,598.632c-2.432-2.432-4.865-3.577-7.871-3.577-3.577,0-6.009,2.002-6.009,5.151s2.432,5.151,6.009,5.151c3.005,0,5.439-1.145,7.871-3.578v-3.148Z"/><path class="b" d="M559.211,551.698c4.579-5.009,14.309-8.013,23.038-8.013,19.46,0,30.049,9.015,30.049,31.337v47.219c0,1.145-1.002,2.147-2.147,2.147h-25.184c-1.145,0-2.146-1.002-2.002-2.147v-42.783c0-5.724-2.577-9.014-7.012-9.014-8.157,0-9.444,8.013-9.444,8.013v43.784c0,1.145-1.002,2.147-2.147,2.147h-25.184c-1.145,0-2.146-1.002-2.146-2.147v-74.549c0-1.287.716-2.003,2.003-2.003h16.026c1.002,0,1.86.429,2.289,1.431l1.86,4.579Z"/><path class="b" d="M643.92,551.698c4.579-5.009,14.309-8.013,23.037-8.013,19.46,0,30.049,9.015,30.049,31.337v47.219c0,1.145-1.001,2.147-2.146,2.147h-25.184c-1.145,0-2.147-1.002-2.004-2.147v-42.783c0-5.724-2.574-9.014-7.011-9.014-8.156,0-9.444,8.013-9.444,8.013v43.784c0,1.145-1.001,2.147-2.146,2.147h-25.184c-1.145,0-2.147-1.002-2.147-2.147v-74.549c0-1.287.715-2.003,2.003-2.003h16.026c1.001,0,1.861.429,2.289,1.431l1.861,4.579Z"/><path class="b" d="M788.298,585.038c0,24.899-16.885,41.497-42.068,41.497s-42.068-16.598-42.068-41.354c0-24.898,16.885-41.496,42.068-41.496s42.068,16.598,42.068,41.352ZM732.064,585.181c0,9.301,5.724,15.597,14.165,15.597s14.165-6.296,14.165-15.741c0-9.3-5.724-15.596-14.165-15.596s-14.165,6.296-14.165,15.74Z"/><path class="b" d="M818.488,551.698c4.579-5.009,14.309-8.013,23.038-8.013,19.46,0,30.049,9.015,30.049,31.337v47.219c0,1.145-1.002,2.147-2.147,2.147h-25.184c-1.145,0-2.146-1.002-2.002-2.147v-42.783c0-5.724-2.577-9.014-7.012-9.014-8.157,0-9.444,8.013-9.444,8.013v43.784c0,1.145-1.002,2.147-2.147,2.147h-25.184c-1.145,0-2.146-1.002-2.146-2.147v-74.549c0-1.287.716-2.003,2.003-2.003h16.026c1.002,0,1.86.429,2.289,1.431l1.86,4.579Z"/><path class="b" d="M951.56,616.375c.287,1.002,0,1.575-1.001,2.147-7.584,5.008-18.602,8.013-29.619,8.013-25.328,0-42.212-16.598-42.212-41.354,0-24.898,16.598-41.496,41.496-41.496,23.753,0,37.776,15.311,37.776,41.352,0,2.147-.144,4.294-.572,6.44-.144,1.145-.859,1.717-2.146,1.717h-45.932s0,9.014,12.02,9.014c7.297,0,15.454-1.717,21.893-4.721,1.001-.43,1.86.143,2.146,1.145l6.152,17.743ZM929.526,578.169c0-6.296-3.864-10.445-9.588-10.445-6.438,0-10.732,4.149-10.732,10.445h20.32Z"/></svg>